<svg width="60" height="34" viewBox="0 0 60 34" fill="none" xmlns="http://www.w3.org/2000/svg">
<g id=".icon_pay_button">
<g id="SBP">
<path d="M20.4059 24.3098L16.2479 26.8727L12.3829 34L28.1358 24.3098H20.4059Z" fill="#027C37"/>
<path d="M59.5 12.658V21.3821H56.623V15.2556H53.8546V21.3821H50.9776V12.658H59.5Z" fill="white"/>
<path d="M49.5664 17.2973C49.6044 19.8312 47.6882 21.6304 44.9632 21.6304C42.3848 21.6304 40.2135 19.97 40.2135 15.9204C40.2135 12.484 42.2762 9.65508 45.3215 9.59723H49.561L48.2147 12.1832H45.6255C44.9846 12.1597 44.3584 12.3904 43.868 12.8307C43.3777 13.2711 43.058 13.8896 42.971 14.5667C43.7795 13.8266 44.815 13.4292 45.8806 13.4502C46.8414 13.4659 47.7599 13.8746 48.4459 14.5917C49.1319 15.3088 49.5331 16.2796 49.5664 17.3031V17.2973ZM46.6948 17.4998C46.6979 17.1386 46.6008 16.7845 46.4158 16.4819C46.2307 16.1793 45.966 15.9416 45.6547 15.7988C45.3434 15.6559 44.9995 15.6142 44.666 15.6789C44.3326 15.7436 44.0245 15.9117 43.7804 16.1623C43.5363 16.4129 43.3671 16.7347 43.2939 17.0874C43.2208 17.4401 43.247 17.8079 43.3693 18.1448C43.4915 18.4817 43.7044 18.7726 43.9812 18.981C44.258 19.1894 44.5864 19.306 44.9252 19.3163C45.1543 19.3248 45.3826 19.2842 45.5967 19.1968C45.8107 19.1094 46.0061 18.9771 46.1711 18.8076C46.3362 18.6382 46.4677 18.435 46.5576 18.2104C46.6476 17.9857 46.6942 17.7441 46.6948 17.4998Z" fill="white"/>
<path d="M37.998 18.3857C37.3207 18.8287 36.5399 19.0593 35.7453 19.051C35.2483 19.023 34.7804 18.7929 34.438 18.4081C34.0955 18.0233 33.9046 17.5132 33.9046 16.9828C33.9046 16.4525 34.0955 15.9423 34.438 15.5575C34.7804 15.1728 35.2483 14.9426 35.7453 14.9146C36.5384 14.9049 37.3177 15.1357 37.9926 15.5799L39.0782 13.5204C38.1728 12.775 37.0576 12.3774 35.9135 12.3923C33.1071 12.3923 31.1746 14.822 31.1746 16.9857C31.1746 19.5138 33.346 21.6138 35.8972 21.6138C37.0522 21.6276 38.1768 21.2192 39.0836 20.4568L37.998 18.3857Z" fill="white"/>
<path d="M8.523 17.002L4.35951 19.5591L0.5 26.6922L16.2474 17.002H8.523Z" fill="#954B97"/>
<path d="M20.4059 9.68961L16.2479 12.2524L12.3829 19.3798L28.1358 9.68961H20.4059Z" fill="#DA1945"/>
<path d="M16.247 7.13311L12.3875 0V33.9995L16.247 26.8721V7.13311Z" fill="#FBBB25"/>
<path d="M12.3829 0L16.247 7.13311L20.4114 9.69017L28.1358 9.68961L12.3829 0Z" fill="#F07F1B"/>
<path d="M12.3829 14.6189V34L16.247 26.8721L16.2479 21.752L12.3829 14.6189Z" fill="#65B330"/>
<path d="M0.5 7.31266V26.6922L4.35951 19.5591V14.44L0.5 7.31266Z" fill="#5C57A2"/>
<path d="M12.3829 14.6189L12.3879 14.6251L0.5 7.31266L4.35951 14.44L20.4109 24.3095L28.1358 24.3098L12.3829 14.6189Z" fill="#0494D3"/>
</g>
</g>
</svg>
