<svg width="78" height="46" viewBox="0 0 78 46" fill="none" xmlns="http://www.w3.org/2000/svg">
<g id="Icons SBP">
<g id="SBP">
<path d="M26.7721 31.791L21.6889 34.8731L16.9641 43.4445L36.2217 31.791H26.7721Z" fill="#027C37"/>
<path d="M74.5637 17.7783V28.27H71.0467V20.9022H67.6623V28.27H64.1453V17.7783H74.5637Z" fill="#231E45"/>
<path d="M62.4201 23.3576C62.4665 26.4049 60.1241 28.5686 56.7928 28.5686C53.6407 28.5686 50.9863 26.5719 50.9863 21.7017C50.9863 17.5691 53.508 14.1669 57.2308 14.0973H62.4135L60.7677 17.2073H57.6024C56.819 17.179 56.0534 17.4565 55.454 17.986C54.8545 18.5156 54.4638 19.2595 54.3574 20.0737C55.3457 19.1837 56.6117 18.7058 57.9143 18.7309C59.0889 18.7498 60.2116 19.2413 61.0503 20.1038C61.889 20.9662 62.3794 22.1336 62.4201 23.3645V23.3576ZM58.9097 23.6011C58.9134 23.1667 58.7948 22.7409 58.5685 22.3769C58.3423 22.013 58.0187 21.7272 57.6381 21.5554C57.2576 21.3836 56.8371 21.3335 56.4295 21.4113C56.0219 21.489 55.6452 21.6913 55.3468 21.9926C55.0484 22.294 54.8415 22.681 54.7521 23.1051C54.6627 23.5293 54.6948 23.9717 54.8442 24.3768C54.9937 24.7819 55.254 25.1318 55.5924 25.3824C55.9308 25.633 56.3322 25.7733 56.7463 25.7857C57.0264 25.7959 57.3055 25.7471 57.5672 25.642C57.8288 25.5369 58.0677 25.3777 58.2695 25.1739C58.4713 24.9701 58.632 24.7259 58.7419 24.4557C58.8519 24.1855 58.909 23.8949 58.9097 23.6011Z" fill="#231E45"/>
<path d="M48.278 24.6665C47.4499 25.1992 46.4955 25.4765 45.5241 25.4666C44.9166 25.4329 44.3445 25.1562 43.9259 24.6934C43.5073 24.2307 43.2739 23.6172 43.2739 22.9794C43.2739 22.3416 43.5073 21.7281 43.9259 21.2653C44.3445 20.8026 44.9166 20.5258 45.5241 20.4921C46.4936 20.4805 47.4464 20.758 48.2713 21.2922L49.5985 18.8154C48.4916 17.9189 47.1283 17.4409 45.7298 17.4587C42.299 17.4587 39.9366 20.3808 39.9366 22.9828C39.9366 26.0232 42.591 28.5487 45.7099 28.5487C47.1218 28.5652 48.4966 28.0742 49.6052 27.1573L48.278 24.6665Z" fill="#231E45"/>
<path d="M12.2454 23.0024L7.15566 26.0776L2.4375 34.656L21.6884 23.0024H12.2454Z" fill="#954B97"/>
<path d="M26.7721 14.2084L21.6889 17.2905L16.9641 25.862L36.2217 14.2084H26.7721Z" fill="#DA1945"/>
<path d="M21.6878 11.1339L16.9697 2.55554V43.4439L21.6878 34.8724V11.1339Z" fill="#FBBB25"/>
<path d="M16.9641 2.55554L21.6878 11.1339L26.7787 14.2091L36.2217 14.2084L16.9641 2.55554Z" fill="#F07F1B"/>
<path d="M16.9641 20.1365V43.4445L21.6878 34.8724L21.6889 28.7149L16.9641 20.1365Z" fill="#65B330"/>
<path d="M2.4375 11.3499V34.656L7.15566 26.0776V19.9213L2.4375 11.3499Z" fill="#5C57A2"/>
<path d="M16.9641 20.1365L16.9702 20.144L2.4375 11.3499L7.15566 19.9213L26.7782 31.7906L36.2217 31.791L16.9641 20.1365Z" fill="#0494D3"/>
</g>
</g>
</svg>
