<svg width="28" height="20" viewBox="0 0 28 20" fill="none" xmlns="http://www.w3.org/2000/svg">
<path d="M14.6483 12.3158C15.9718 12.3158 17.0448 11.2604 17.0448 9.95852C17.0448 8.65664 15.9718 7.60126 14.6483 7.60126C13.3247 7.60126 12.2517 8.65664 12.2517 9.95852C12.2517 11.2604 13.3247 12.3158 14.6483 12.3158Z" fill="url(#paint0_radial_5330_25882)"/>
<path fill-rule="evenodd" clip-rule="evenodd" d="M1.26863 7.6985H0V12.0568H1.26195C1.93298 12.0568 2.41743 11.901 2.84281 11.5536C3.34831 11.1421 3.6472 10.522 3.6472 9.88066C3.6472 8.59443 2.67026 7.6985 1.26863 7.6985ZM2.27826 10.9724C2.00659 11.2137 1.65396 11.3189 1.09556 11.3189H0.863611V8.437H1.09556C1.65396 8.437 1.99273 8.53516 2.27826 8.78941C2.57714 9.05124 2.75688 9.45685 2.75688 9.87426C2.75688 10.2927 2.57714 10.7108 2.27826 10.9724Z" fill="#1A1918"/>
<path fill-rule="evenodd" clip-rule="evenodd" d="M4.04492 7.6985H4.90922V12.0568H4.04492V7.6985Z" fill="#1A1918"/>
<path fill-rule="evenodd" clip-rule="evenodd" d="M7.02244 9.37098C6.50376 9.18223 6.35158 9.05764 6.35158 8.82225C6.35158 8.54762 6.6229 8.33917 6.99539 8.33917C7.25439 8.33917 7.46717 8.44374 7.69227 8.69209L8.14453 8.10968C7.7729 7.78993 7.32834 7.62644 6.84253 7.62644C6.05852 7.62644 5.46058 8.16187 5.46058 8.87528C5.46058 9.47571 5.73909 9.783 6.55066 10.0704C6.88909 10.1878 7.0613 10.2659 7.14826 10.3186C7.32081 10.4296 7.40726 10.5865 7.40726 10.7695C7.40726 11.1226 7.1219 11.3843 6.73622 11.3843C6.32402 11.3843 5.9921 11.1815 5.79301 10.803L5.23462 11.3319C5.63279 11.9067 6.11107 12.1615 6.76875 12.1615C7.66677 12.1615 8.29689 11.5742 8.29689 10.7305C8.29689 10.0381 8.00554 9.72457 7.02244 9.37098Z" fill="#1A1918"/>
<path fill-rule="evenodd" clip-rule="evenodd" d="M8.56958 9.88066C8.56958 11.1617 9.59222 12.1549 10.9083 12.1549C11.2802 12.1549 11.5988 12.083 11.9918 11.901V10.9003C11.6462 11.2405 11.3403 11.3777 10.9485 11.3777C10.078 11.3777 9.46024 10.7569 9.46024 9.87426C9.46024 9.0376 10.0975 8.37756 10.9083 8.37756C11.3205 8.37756 11.6325 8.5222 11.9918 8.86787V7.86772C11.6125 7.67846 11.3004 7.6 10.9286 7.6C9.61927 7.6 8.56958 8.61346 8.56958 9.88066Z" fill="#1A1918"/>
<path fill-rule="evenodd" clip-rule="evenodd" d="M18.8442 10.6259L17.6627 7.6985H16.7185L18.5989 12.1686H19.0639L20.978 7.6985H20.0411L18.8442 10.6259Z" fill="#1A1918"/>
<path fill-rule="evenodd" clip-rule="evenodd" d="M21.3689 12.0568H23.82V11.3189H22.2325V10.1425H23.7615V9.40432H22.2325V8.437H23.82V7.6985H21.3689V12.0568Z" fill="#1A1918"/>
<path fill-rule="evenodd" clip-rule="evenodd" d="M27.242 8.98523C27.242 8.16928 26.6706 7.6985 25.674 7.6985H24.3923V12.0568H25.2556V10.306H25.3684L26.5646 12.0568H27.6275L26.2325 10.2206C26.8835 10.0905 27.242 9.65251 27.242 8.98523ZM25.5081 9.70504H25.2556V8.38497H25.5218C26.06 8.38497 26.3527 8.60689 26.3527 9.03086C26.3527 9.46915 26.06 9.70504 25.5081 9.70504Z" fill="#1A1918"/>
<path fill-rule="evenodd" clip-rule="evenodd" d="M27.7936 7.86233C27.7936 7.78605 27.7402 7.74413 27.6462 7.74413H27.5212V8.12718H27.6142V7.97868L27.7231 8.12718H27.8366L27.7085 7.96925C27.7635 7.95477 27.7936 7.91553 27.7936 7.86233ZM27.6298 7.91469H27.6142V7.81451H27.6308C27.6768 7.81451 27.7006 7.83084 27.7006 7.86367C27.7006 7.89769 27.6765 7.91469 27.6298 7.91469Z" fill="#1A1918"/>
<path fill-rule="evenodd" clip-rule="evenodd" d="M27.6648 7.60101C27.4758 7.60101 27.3257 7.74952 27.3257 7.9349C27.3257 8.12028 27.4775 8.26896 27.6648 8.26896C27.8492 8.26896 28 8.11877 28 7.9349C28 7.75204 27.8492 7.60101 27.6648 7.60101ZM27.6636 8.20935C27.5148 8.20935 27.3931 8.08745 27.3931 7.9354C27.3931 7.78286 27.5133 7.66112 27.6636 7.66112C27.8117 7.66112 27.9324 7.78572 27.9324 7.9354C27.9324 8.0861 27.8117 8.20935 27.6636 8.20935Z" fill="#1A1918"/>
<defs>
<radialGradient id="paint0_radial_5330_25882" cx="0" cy="0" r="1" gradientUnits="userSpaceOnUse" gradientTransform="translate(17.0448 12.3158) scale(5.44529 5.35605)">
<stop stop-color="#F59900"/>
<stop offset="0.210082" stop-color="#F39501"/>
<stop offset="0.908163" stop-color="#CE3C0B"/>
<stop offset="1" stop-color="#A4420A"/>
</radialGradient>
</defs>
</svg>
