<svg width="28" height="20" viewBox="0 0 28 20" fill="none" xmlns="http://www.w3.org/2000/svg">
<path fill-rule="evenodd" clip-rule="evenodd" d="M0.000483301 6.92547V11.5784C0.000483301 11.5784 -0.0399579 12.5067 0.619032 13.2351C1.27802 13.9636 2.45435 14.1164 3.18271 14.0929C3.91107 14.0693 5.34177 13.9166 5.89671 13.7168V6.92547H4.09316V12.4949C4.09316 12.4949 3.25499 12.7182 2.65379 12.5772C2.05258 12.4362 1.73467 11.9427 1.73467 11.2729V6.92547H0.000483301Z" fill="#052C18"/>
<path fill-rule="evenodd" clip-rule="evenodd" d="M6.65405 14.0459L9.38824 6.92547H11.5155L12.5329 9.64553L12.3479 10.2948L11.0877 10.5018L10.4287 8.7019L8.52115 14.0459H6.65405Z" fill="#052C18"/>
<path fill-rule="evenodd" clip-rule="evenodd" d="M11.4924 11.6841L12.2786 13.9754L14.1978 13.9636L13.0763 11.0026C13.0763 11.0026 12.6341 11.2259 12.2526 11.3933C11.8085 11.5883 11.4924 11.6841 11.4924 11.6841Z" fill="#052C18"/>
<path fill-rule="evenodd" clip-rule="evenodd" d="M14.2903 6.92547V8.47645H16.3713V14.0459H18.1055V8.47645H20.1865V6.92547H14.2903Z" fill="#052C18"/>
<path fill-rule="evenodd" clip-rule="evenodd" d="M21.7124 6.92547V14.0459H23.4466V11.9309C23.4466 11.9309 24.4914 11.9661 25.0723 11.8119C25.6534 11.6577 26.9627 11.1333 26.9627 9.37968C26.9627 7.62602 25.8441 6.87697 24.2963 6.76685C23.4509 6.71398 21.7124 6.92547 21.7124 6.92547ZM23.4466 8.40595V10.3799C23.4466 10.3799 24.3004 10.5455 24.8513 10.1566C25.2675 9.86295 25.201 9.28719 25.1605 9.11094C25.1201 8.93469 24.9683 8.5822 24.6157 8.45297C24.1196 8.27109 23.4466 8.40595 23.4466 8.40595Z" fill="#052C18"/>
<path fill-rule="evenodd" clip-rule="evenodd" d="M7.31865 12.3098L7.46605 11.9221C7.46605 11.9221 6.61631 12.182 6.14377 12.2768C6.1394 12.3891 6.1394 12.4156 6.1394 12.4156C6.1394 12.4156 6.44726 12.3935 6.74207 12.3671C7.03688 12.3406 7.31865 12.3098 7.31865 12.3098Z" fill="#43B748"/>
<path fill-rule="evenodd" clip-rule="evenodd" d="M9.50826 11.2655C9.50826 11.2655 10.6745 10.9439 14.2902 8.47645H16.3713L16.3655 8.77021C16.3655 8.77021 12.6514 11.3228 9.26978 11.9573C9.47358 11.3625 9.50826 11.2655 9.50826 11.2655Z" fill="#43B748"/>
<path fill-rule="evenodd" clip-rule="evenodd" d="M20.1749 6.92547C20.1749 6.92547 20.7414 6.63466 22.1895 6.43198C23.3873 6.26433 25.1549 6.50248 25.1549 6.50248C25.1549 6.50248 25.1549 6.50248 25.1636 6.37029C24.1578 6.06186 22.5883 5.92086 22.1201 5.90324C21.6519 5.88561 20.4379 5.93849 19.4148 6.09711C18.3916 6.25573 16.8511 6.92547 16.8511 6.92547H20.1749Z" fill="#43B748"/>
<path fill-rule="evenodd" clip-rule="evenodd" d="M26.7655 6.98166L26.7644 7.09178L26.9606 7.0929L26.9617 7.64315L27.0896 7.64117L27.0917 7.0922L27.2825 7.08846L27.2814 6.98384L26.7655 6.98166Z" fill="#052C18"/>
<path fill-rule="evenodd" clip-rule="evenodd" d="M27.3616 6.98385L27.3626 7.64477L27.4819 7.64259L27.4807 7.12816L27.6206 7.6404L27.7339 7.63815L27.8763 7.1149L27.8829 7.64365L28 7.64146L27.9977 6.97948L27.8124 6.98053L27.6834 7.44427L27.5545 6.97948L27.3616 6.98385Z" fill="#052C18"/>
</svg>
