<svg width="28" height="20" viewBox="0 0 28 20" fill="none" xmlns="http://www.w3.org/2000/svg">
<path fill-rule="evenodd" clip-rule="evenodd" d="M21.6495 10.6106C21.6495 13.4456 21.0153 15.5585 19.7477 16.9353C18.4797 18.3118 16.5209 19 13.8801 19C11.4127 19 9.54088 18.3118 8.26463 16.9353C6.98774 15.5588 6.3501 13.4827 6.3501 10.7073V1.39556C6.35035 1.29073 6.39122 1.19027 6.46378 1.11614C6.53633 1.04202 6.63467 1.00026 6.73727 1H11.2113C11.3139 1.00043 11.4121 1.04224 11.4846 1.11633C11.5571 1.19042 11.5981 1.29078 11.5985 1.39556V10.9108C11.5985 12.044 11.8037 12.9162 12.2215 13.5315C12.5342 13.9551 12.98 14.2558 13.4841 14.3831C13.9883 14.5104 14.5199 14.4565 14.9897 14.2305C15.3012 14.0808 15.5751 13.8605 15.7905 13.5862C16.199 13.009 16.4023 12.1583 16.4011 11.0338V9.25202H21.6495V10.6106Z" fill="#16387A"/>
<path fill-rule="evenodd" clip-rule="evenodd" d="M21.244 8.2112H16.4016V1.41444C16.4019 1.3046 16.4447 1.19934 16.5207 1.12167C16.5967 1.044 16.6998 1.00026 16.8073 1H17.5322C17.5331 2.11455 17.9671 3.18312 18.739 3.97075C19.511 4.75864 20.5575 5.20125 21.6487 5.20138H21.65V8.2112H21.244Z" fill="#16387A"/>
<path fill-rule="evenodd" clip-rule="evenodd" d="M18.5635 1H21.2444C21.3519 1.00034 21.4549 1.04412 21.5309 1.12177C21.6069 1.19941 21.6497 1.30463 21.6501 1.41444V4.15567C20.8317 4.1555 20.0468 3.82335 19.468 3.23222C18.8893 2.64109 18.5639 1.83937 18.5635 1.00326V1Z" fill="#F4821F"/>
</svg>
