<svg width="71" height="30" viewBox="0 0 71 30" fill="none" xmlns="http://www.w3.org/2000/svg">
<g clip-path="url(#clip0_179_605)">
<path d="M56.2487 0H14.7513C6.6044 0 0 6.71573 0 15C0 23.2843 6.6044 30 14.7513 30H56.2487C64.3956 30 71 23.2843 71 15C71 6.71573 64.3956 0 56.2487 0Z" fill="#303030"/>
<path d="M36.4827 10.5569H30.5956V20.118H33.4591V17.546H36.4804C37.1905 17.546 37.882 17.5248 38.5549 17.3053C39.859 16.883 40.8267 15.6985 40.8267 14.0916C40.8267 12.4847 39.8776 11.319 38.5944 10.8589C37.8843 10.597 37.2114 10.5569 36.4804 10.5569H36.4827ZM33.4614 15.2973V12.8669H36.0697C36.622 12.8669 36.9399 12.9283 37.1951 13.0274C37.6499 13.2091 37.8657 13.6291 37.8657 14.0727C37.8657 14.5541 37.6082 15.0165 37.1162 15.177C36.8795 15.2572 36.6034 15.2973 36.0697 15.2973H33.4614Z" fill="white"/>
<path d="M44.9339 16.6234L46.2961 12.7678H46.5142L47.8763 16.6234H44.9339ZM44.2239 18.7329H48.5702L49.1224 20.118H52.3409L48.4889 10.5569H44.3005L40.4484 20.118H43.6878L44.2216 18.7329H44.2239Z" fill="white"/>
<path d="M59.3117 10.5569L56.9819 14.9151H56.8821L54.5315 10.5569H51.1946L55.4411 17.5861V20.118H58.4044V17.3455L62.4351 10.5569H59.3117Z" fill="white"/>
<path d="M8.56725 7.7207H24.4765V15.8566C24.4765 17.9425 23.3812 19.8703 21.6061 20.9132L16.5219 23.8981L11.4377 20.9132C9.6602 19.8703 8.56725 17.9425 8.56725 15.8566V7.7207Z" fill="#FFDD2D"/>
<path fill-rule="evenodd" clip-rule="evenodd" d="M12.9321 12.0034V14.5329C13.2732 14.1412 13.8904 13.8769 14.5982 13.8769H15.3663V16.8194C15.3663 17.6028 15.1574 18.287 14.8465 18.6646H18.1903C17.8817 18.287 17.6728 17.6028 17.6728 16.8217V13.8793H18.4409C19.1487 13.8793 19.7682 14.1436 20.107 14.5353V12.0058H12.9298L12.9321 12.0034Z" fill="#333333"/>
</g>
<defs>
<clipPath id="clip0_179_605">
<rect width="71" height="30" fill="white"/>
</clipPath>
</defs>
</svg>
