<svg width="180" height="180" viewBox="0 0 180 180" fill="none" xmlns="http://www.w3.org/2000/svg">
<circle opacity="0.07" cx="90" cy="90" r="80" fill="#4A85FF"/>
<circle cx="90" cy="90" r="80" fill="url(#paint0_radial_2437_13343)"/>
<path d="M90.0001 139.67C117.432 139.67 139.67 117.432 139.67 90C139.67 62.568 117.432 40.33 90.0001 40.33C62.5681 40.33 40.3301 62.568 40.3301 90C40.3301 117.432 62.5681 139.67 90.0001 139.67Z" fill="#4A85FF"/>
<path fill-rule="evenodd" clip-rule="evenodd" d="M90 80C89.4067 80 88.8266 79.8241 88.3333 79.4944C87.8399 79.1648 87.4554 78.6962 87.2284 78.148C87.0013 77.5999 86.9419 76.9967 87.0576 76.4147C87.1734 75.8328 87.4591 75.2982 87.8787 74.8787C88.2982 74.4591 88.8328 74.1734 89.4147 74.0576C89.9967 73.9419 90.5999 74.0013 91.148 74.2284C91.6962 74.4554 92.1648 74.8399 92.4944 75.3333C92.824 75.8266 93 76.4067 93 77C93 77.7956 92.6839 78.5587 92.1213 79.1213C91.5587 79.6839 90.7956 80 90 80Z" fill="white"/>
<path d="M140 90C140 117.614 117.614 140 90 140C62.3858 140 40 117.614 40 90C40 62.3858 62.3858 40 90 40C117.614 40 140 62.3858 140 90ZM50 90C50 112.091 67.9086 130 90 130C112.091 130 130 112.091 130 90C130 67.9086 112.091 50 90 50C67.9086 50 50 67.9086 50 90Z" fill="white"/>
<path d="M87 87C87 85.3431 88.3431 84 90 84C91.6569 84 93 85.3431 93 87V101C93 102.657 91.6569 104 90 104C88.3431 104 87 102.657 87 101V87Z" fill="white"/>
<defs>
<radialGradient id="paint0_radial_2437_13343" cx="0" cy="0" r="1" gradientUnits="userSpaceOnUse" gradientTransform="translate(90 90) rotate(90) scale(80)">
<stop stop-color="#265DCE"/>
<stop offset="1" stop-color="#4A85FF" stop-opacity="0"/>
</radialGradient>
</defs>
</svg>
