<svg width="28" height="20" viewBox="0 0 28 20" fill="none" xmlns="http://www.w3.org/2000/svg">
<g clip-path="url(#clip0_5330_26059)">
<path d="M5.49328 1.25127H12.474C12.6928 1.2418 12.9108 1.28539 13.1092 1.37832C13.3075 1.47125 13.4805 1.61077 13.6134 1.78499C13.7462 1.95921 13.8349 2.16296 13.872 2.37887C13.9091 2.59479 13.8934 2.81647 13.8263 3.02503L10.5598 16.9766C10.4319 17.465 10.1518 17.8999 9.75999 18.2183C9.3682 18.5367 8.88515 18.7219 8.38094 18.7471H1.41659C1.19809 18.7564 0.980579 18.7128 0.78253 18.62C0.584481 18.5273 0.411746 18.3881 0.278995 18.2143C0.146244 18.0405 0.0573999 17.8372 0.020009 17.6218C-0.0173819 17.4063 -0.00221506 17.185 0.0642214 16.9766L3.33081 3.02503C3.4558 2.53784 3.73287 2.1032 4.12174 1.78423C4.51062 1.46525 4.99106 1.27856 5.49328 1.25127Z" fill="#ED171F"/>
<path d="M11.8926 1.25127H19.9186C20.8986 1.25127 20.4543 2.04505 20.2257 3.02502L16.9754 16.9766C16.75 17.9566 16.8186 18.7471 15.8419 18.7471H7.81592C7.59746 18.7566 7.37994 18.7131 7.18192 18.6203C6.9839 18.5276 6.81126 18.3883 6.67873 18.2144C6.5462 18.0404 6.45771 17.837 6.42081 17.6215C6.38391 17.406 6.39969 17.1847 6.46682 16.9766L9.7138 3.02502C9.84012 2.53554 10.1197 2.09931 10.5118 1.78016C10.9038 1.46101 11.3877 1.27567 11.8926 1.25127" fill="#082F67"/>
<path d="M19.6147 1.25127H26.5824C26.8012 1.2418 27.0192 1.28539 27.2176 1.37832C27.4159 1.47125 27.5889 1.61077 27.7218 1.78499C27.8546 1.95921 27.9433 2.16296 27.9804 2.37887C28.0175 2.59479 28.0018 2.81647 27.9347 3.02503L24.6682 16.9766C24.5406 17.4657 24.2601 17.9013 23.8676 18.2198C23.475 18.5383 22.991 18.7231 22.4861 18.7471H15.525C15.3065 18.7564 15.089 18.7128 14.8909 18.62C14.6929 18.5273 14.5201 18.3881 14.3874 18.2143C14.2546 18.0405 14.1658 17.8372 14.1284 17.6218C14.091 17.4063 14.1062 17.185 14.1726 16.9766L17.4229 3.02503C17.5494 2.53323 17.8308 2.09522 18.2256 1.77578C18.6203 1.45634 19.1074 1.27243 19.6147 1.25127Z" fill="#006A65"/>
<path fill-rule="evenodd" clip-rule="evenodd" d="M18.4355 14.3764H19.0888L19.2881 13.7427H18.6348L18.4355 14.3764ZM18.9614 12.632L18.736 13.3801C18.8605 13.3147 18.9893 13.258 19.1215 13.2102C19.2554 13.1808 19.4482 13.1547 19.4482 13.1547L19.6082 12.632H18.9614ZM19.2881 11.5541L19.0692 12.2727C19.1925 12.2163 19.3191 12.1672 19.4482 12.1257C19.5557 12.1013 19.6649 12.085 19.7748 12.0767L19.9316 11.5541H19.2881ZM20.745 11.5541L19.8957 14.3699H20.1211L19.9414 14.9513H19.7127L19.6605 15.131H18.8536L18.9092 14.9513H17.2759L17.4425 14.4123H17.6091L18.4714 11.5541L18.6348 10.9759H19.4612L19.373 11.2666C19.5033 11.1744 19.6464 11.1017 19.7977 11.051C20.0067 10.9955 21.2056 10.9759 21.2056 10.9759L21.0292 11.5508L20.745 11.5541Z" fill="white"/>
<path d="M21.1108 10.9792H21.9895V11.3058C21.9895 11.3613 22.032 11.3875 22.1365 11.3875H22.3129L22.1496 11.9297H21.6858C21.2709 11.9591 21.1174 11.7827 21.1239 11.5835L21.1108 10.9792Z" fill="white"/>
<path d="M21.2253 13.5532H20.3857L20.5295 13.0698H21.4898L21.627 12.6288H20.6797L20.8431 12.0833H23.4792L23.3159 12.6288H22.4306L22.2902 13.0698H23.1787L23.0317 13.5532H22.0713L21.9014 13.7558H22.2902L22.3849 14.3666C22.3868 14.4098 22.3979 14.4522 22.4176 14.4907C22.4818 14.5166 22.551 14.5278 22.6201 14.5234H22.7377L22.5548 15.1147H22.2608H22.0517C21.9745 15.0987 21.9012 15.0676 21.8361 15.0232C21.7955 15.0037 21.7602 14.9749 21.7329 14.9392C21.7057 14.9034 21.6873 14.8617 21.6793 14.8174L21.5748 14.2033L21.1501 14.8011C21.0784 14.907 20.9807 14.9928 20.8663 15.05C20.7518 15.1072 20.6246 15.134 20.4968 15.1277H19.8958L20.0558 14.5985H20.2877C20.3486 14.5966 20.408 14.5798 20.4609 14.5495C20.5161 14.5308 20.5626 14.4925 20.5915 14.4417L21.2253 13.5532Z" fill="white"/>
<path d="M12.0233 12.2303H14.2478L14.0845 12.7627H13.1927L13.0555 13.2135H13.9669L13.8003 13.7623H12.8889L12.6701 14.4973C12.6439 14.5789 12.8857 14.592 12.9706 14.592L13.4279 14.5299L13.245 15.1343H12.2193C12.1411 15.1337 12.0632 15.1239 11.9873 15.1049C11.9529 15.098 11.9204 15.0836 11.8922 15.0627C11.8639 15.0418 11.8407 15.0149 11.824 14.984C11.7931 14.9536 11.7715 14.915 11.7616 14.8728C11.7518 14.8306 11.7542 14.7865 11.7685 14.7455L12.0625 13.7656H11.5562L11.7227 13.207H12.2323L12.3663 12.7562H11.8599L12.0233 12.2303Z" fill="white"/>
<path d="M13.5225 11.2764H14.4339L14.2673 11.8317H13.0194L12.8855 11.9493C12.8267 12.0049 12.8071 11.982 12.732 12.0245C12.6044 12.0898 12.4637 12.1255 12.3204 12.129H11.9219L12.0819 11.5933H12.2028C12.2728 11.6001 12.3434 11.5901 12.4086 11.5639C12.4659 11.5172 12.5117 11.4579 12.5425 11.3907L12.7712 10.9726H13.6793L13.5225 11.2764Z" fill="white"/>
<path fill-rule="evenodd" clip-rule="evenodd" d="M15.2735 12.1911C15.4672 12.0329 15.6994 11.9292 15.9464 11.8905C16.0444 11.8709 16.652 11.8905 16.652 11.8905L16.7435 11.5835H15.4564L15.2735 12.1911ZM16.4756 12.423H15.2016L15.1233 12.681H16.2274C16.2828 12.6775 16.3385 12.6775 16.394 12.681L16.4756 12.423ZM14.8423 10.9792H15.6198L15.4891 11.3777C15.618 11.2739 15.7583 11.1852 15.9072 11.1131C16.0901 11.0578 16.2768 11.0164 16.4658 10.989H17.7235L17.2955 12.4034C17.2513 12.5724 17.1808 12.7333 17.0865 12.8803C17.0329 12.9621 16.96 13.0294 16.8741 13.0763C16.784 13.1263 16.6855 13.1596 16.5834 13.1743C16.4985 13.1743 16.3711 13.1743 16.1947 13.1743H14.9828L14.6561 14.3045C14.6267 14.4156 14.6104 14.4679 14.63 14.4973C14.6431 14.5161 14.6607 14.5314 14.6813 14.5417C14.7018 14.5519 14.7246 14.5569 14.7476 14.5561L15.28 14.5071L15.1004 15.1245H14.483C14.2935 15.1245 14.1563 15.1245 14.0583 15.1245C13.9603 15.1245 13.8689 15.1245 13.8068 15.0722C13.7448 15.0199 13.6631 14.9611 13.6664 14.8925C13.6821 14.7906 13.7062 14.6901 13.7382 14.592L14.8423 10.9792Z" fill="white"/>
<path d="M17.093 13.2854L17.0211 13.612C17.0018 13.7094 16.9527 13.7985 16.8807 13.8668C16.8249 13.9189 16.759 13.9588 16.687 13.9841C16.615 14.0094 16.5386 14.0195 16.4625 14.0138L16.0215 14.0497V14.4385C16.0215 14.5463 16.0477 14.5365 16.064 14.5528C16.0798 14.5701 16.1002 14.5825 16.1228 14.5887H16.2567L16.6749 14.5561L16.505 15.1245H16.0215C15.8011 15.1479 15.5783 15.1234 15.3682 15.0526C15.2898 15.0003 15.28 14.9383 15.28 14.8305L15.3094 13.318H16.064V13.6447H16.2469C16.2917 13.6486 16.3368 13.6407 16.3776 13.6218C16.4015 13.6 16.4186 13.5716 16.4266 13.5402L16.5017 13.3017L17.093 13.2854Z" fill="white"/>
<path d="M6.31971 5.71016C6.29031 5.83102 5.80686 8.06536 5.80686 8.06536C5.69906 8.51942 5.62719 8.84281 5.36913 9.04534C5.22421 9.16519 5.04103 9.22896 4.85301 9.225C4.78698 9.23323 4.71996 9.22755 4.65626 9.20832C4.59256 9.1891 4.53358 9.15676 4.48313 9.11338C4.43267 9.07 4.39185 9.01654 4.36329 8.95644C4.33473 8.89634 4.31906 8.83093 4.31729 8.76441V8.66315C4.31729 8.66315 4.41529 8.05556 4.41529 8.0523C4.41529 8.04903 4.91508 6.02048 5.00981 5.75262V5.72322C4.61831 5.75088 4.22534 5.75088 3.83384 5.72322C3.83384 5.74282 3.80117 5.86695 3.80117 5.86695L3.28179 8.15356L3.23605 8.34956L3.15112 9.00287C3.15458 9.16197 3.19962 9.31738 3.28179 9.45366C3.52025 9.86852 4.19316 9.93058 4.58842 9.93058C5.02821 9.94426 5.46396 9.84292 5.85259 9.63659C6.06664 9.4922 6.24891 9.30557 6.38822 9.08818C6.52753 8.87079 6.62093 8.62722 6.6627 8.37242L6.71823 8.14376C6.71823 8.14376 7.24415 6.03028 7.33235 5.75262C7.33139 5.74285 7.33139 5.733 7.33235 5.72322C7.0005 5.7417 6.66789 5.7417 6.33604 5.72322" fill="white"/>
<path d="M9.21707 9.90772C8.86428 9.90772 8.74015 9.90772 8.33183 9.92406L8.3155 9.89466C8.35143 9.73786 8.39063 9.58433 8.42329 9.42427L8.47556 9.21194C8.54195 8.93603 8.59428 8.65692 8.63235 8.37569C8.63235 8.30383 8.66502 8.12743 8.46249 8.12743C8.36987 8.13741 8.28003 8.16513 8.1979 8.2091C8.1489 8.38549 8.04764 8.88202 8.0019 9.11068C7.90064 9.5876 7.89411 9.63986 7.84837 9.87832L7.81897 9.90772C7.45638 9.90772 7.33225 9.90772 6.91413 9.92406L6.89453 9.88812C6.9664 9.6072 7.03499 9.31974 7.10033 9.03554C7.21783 8.5579 7.30619 8.07355 7.36492 7.58518L7.39759 7.56231C7.80264 7.50352 7.90391 7.49372 8.34163 7.40225L8.37756 7.44472L8.31223 7.68971C8.38736 7.64398 8.45596 7.60151 8.53436 7.56231C8.71067 7.47687 8.90357 7.43116 9.09948 7.42838C9.19998 7.41717 9.30146 7.43798 9.38945 7.48784C9.47744 7.5377 9.54743 7.61406 9.58946 7.70604C9.67113 7.90531 9.61886 8.1503 9.5078 8.63049L9.45227 8.87548C9.33794 9.4112 9.31834 9.5092 9.25627 9.87832L9.21707 9.90772Z" fill="white"/>
<path d="M10.6414 9.90772C10.429 9.90772 10.2951 9.90772 10.1612 9.90772C10.0272 9.90772 9.89985 9.90772 9.70386 9.92405V9.90772V9.88812C9.73472 9.77081 9.77179 9.65523 9.81492 9.54186C9.85661 9.4278 9.89044 9.31102 9.91619 9.19234C9.97498 8.92448 10.0142 8.73501 10.0403 8.57168C10.0664 8.40836 10.086 8.27769 10.1056 8.1209H10.122H10.1383L10.6185 8.0523C10.7557 8.0327 10.8962 8.0033 11.115 7.9641V7.9837V8.00003C11.0758 8.16663 11.0334 8.32669 10.9942 8.50309C10.955 8.67948 10.9125 8.82974 10.8766 9.00287C10.7982 9.35893 10.7655 9.48959 10.7492 9.58433C10.7328 9.67906 10.723 9.72152 10.6936 9.91098L10.674 9.92732L10.6414 9.90772Z" fill="white"/>
<path d="M12.879 8.65988C12.8406 8.86149 12.77 9.05561 12.6699 9.2348C12.644 9.28265 12.6065 9.32325 12.5608 9.35291C12.5152 9.38258 12.4628 9.40037 12.4086 9.40466C12.3792 9.40466 12.2061 9.40466 12.2028 9.1466C12.2073 9.01756 12.2259 8.8894 12.2583 8.76441C12.3531 8.35282 12.4608 8.0131 12.7385 8.0131C12.9574 8.0131 12.9704 8.26789 12.879 8.66642V8.65988ZM13.7936 8.70562C13.9177 8.16663 13.823 7.9151 13.7022 7.75831C13.5934 7.64884 13.4616 7.56505 13.3164 7.51305C13.1712 7.46106 13.0161 7.44217 12.8626 7.45778C12.4765 7.4431 12.0989 7.57363 11.8043 7.82364C11.5605 8.07361 11.3978 8.3912 11.3371 8.73501C11.262 9.06167 11.1738 9.66272 11.7226 9.88159C11.905 9.9459 12.0976 9.97688 12.291 9.97305C12.4984 9.98025 12.705 9.94385 12.8974 9.8662C13.0898 9.78855 13.2638 9.67138 13.4082 9.52226C13.6011 9.28293 13.7333 9.00052 13.7936 8.69908" fill="white"/>
<path d="M22.3782 9.94365C21.9535 9.94365 21.8327 9.94365 21.4407 9.94365L21.4146 9.91098C21.5223 9.50919 21.6301 9.1074 21.7249 8.70235C21.804 8.35654 21.8629 8.00642 21.9013 7.65377L21.9339 7.62764C22.3553 7.56557 22.4697 7.54924 22.9139 7.46758V7.50351C22.8322 7.83017 22.7539 8.15683 22.6755 8.49982C22.5154 9.1956 22.4566 9.55166 22.3945 9.91425L22.3782 9.94365Z" fill="white"/>
<path d="M21.7414 8.70562C21.7044 8.90659 21.6337 9.09986 21.5323 9.27727C21.4495 9.37354 21.3322 9.43338 21.2057 9.44386C21.1763 9.44386 21.0064 9.44386 20.9999 9.18907C21.0013 9.05418 21.0211 8.92011 21.0587 8.79055C21.1501 8.38876 21.2579 8.04903 21.5356 8.04903C21.7544 8.04903 21.8622 8.29729 21.7544 8.70235L21.7414 8.70562ZM22.594 8.74482C22.7148 8.20583 22.2216 8.69582 22.1399 8.51942C22.019 8.24176 22.0974 7.68318 21.6074 7.49371C21.4215 7.47006 21.2325 7.49122 21.0563 7.55543C20.8802 7.61964 20.7219 7.72504 20.5948 7.86284C20.3503 8.1092 20.1853 8.42327 20.1212 8.76442C20.046 9.09107 19.9611 9.68232 20.5033 9.89792C20.6571 9.96263 20.8235 9.99167 20.9901 9.98285C21.5388 9.95345 21.97 9.13027 22.264 8.80035C22.5025 8.54229 22.545 8.89835 22.5907 8.74155" fill="white"/>
<path d="M16.1945 9.90772C15.8418 9.90772 15.7209 9.90772 15.3093 9.92406V9.89466C15.3452 9.73786 15.3844 9.58433 15.4204 9.42427L15.4694 9.21194C15.5478 8.88528 15.6196 8.49329 15.6294 8.37569C15.6392 8.2581 15.6588 8.12743 15.4596 8.12743C15.3667 8.13648 15.2767 8.16426 15.195 8.2091C15.146 8.38549 15.0447 8.88202 14.9957 9.11068C14.8944 9.5876 14.8879 9.63986 14.8422 9.87832L14.8128 9.90772C14.4502 9.90772 14.3261 9.90772 13.9112 9.92406L13.8916 9.88812C13.9635 9.6072 14.0288 9.31974 14.0974 9.03554C14.2133 8.55755 14.3016 8.0733 14.362 7.58518L14.3947 7.56231C14.7997 7.50352 14.8977 7.49372 15.3387 7.40225L15.3681 7.45778L15.306 7.70278C15.3779 7.65705 15.4498 7.61458 15.5249 7.57538C15.7012 7.48994 15.8941 7.44422 16.09 7.44145C16.1909 7.43053 16.2927 7.45142 16.3812 7.50121C16.4696 7.55099 16.5403 7.62718 16.5833 7.71911C16.6649 7.91837 16.6094 8.16337 16.4983 8.64355L16.4428 8.88855C16.3285 9.42427 16.3089 9.52227 16.2501 9.89139L16.1945 9.90772Z" fill="white"/>
<path d="M19.2357 5.70363H18.945C18.1839 5.70363 17.8801 5.70363 17.7559 5.70363C17.7559 5.75916 17.7233 5.86042 17.7233 5.86042L17.4522 7.13112C17.4522 7.13112 16.7988 9.80972 16.7727 9.93712C17.426 9.93712 17.7069 9.93712 17.818 9.93712L18.0009 9.06168C18.0009 9.06168 18.1316 8.51289 18.1381 8.49329C18.1616 8.46232 18.1903 8.43577 18.2231 8.41489H18.2819C18.8535 8.41489 19.5003 8.41489 20.0066 8.0425C20.3575 7.77232 20.5998 7.38517 20.6893 6.95146C20.7216 6.82772 20.738 6.70041 20.7383 6.57254C20.7487 6.39545 20.698 6.22017 20.5946 6.07602C20.3398 5.71343 19.827 5.71016 19.2324 5.70363H19.2357ZM19.6114 7.01026C19.5834 7.14365 19.5261 7.26914 19.4436 7.37763C19.3611 7.48611 19.2555 7.57487 19.1344 7.63744C18.9273 7.72104 18.704 7.75677 18.4811 7.74198H18.308V7.67991L18.5955 6.42554V6.36348V6.31121H18.7131L19.3206 6.36348C19.3834 6.38631 19.441 6.42148 19.4899 6.46693C19.5388 6.51237 19.5782 6.56716 19.6056 6.62807C19.633 6.68897 19.6479 6.75475 19.6495 6.82151C19.651 6.88828 19.6392 6.95468 19.6146 7.01679" fill="white"/>
<path d="M25.8473 7.45778L25.8211 7.42838C25.39 7.51331 25.3116 7.52965 24.913 7.58191L24.8836 7.61131C24.8836 7.61131 24.8836 7.61131 24.8836 7.62764C24.5864 8.31036 24.5962 8.16336 24.3544 8.70235C24.3544 8.67622 24.3544 8.65988 24.3544 8.63375L24.276 7.45778L24.2368 7.42185C23.7861 7.50678 23.773 7.52311 23.3549 7.57538L23.3189 7.60478C23.3189 7.60478 23.3189 7.63418 23.3189 7.65051C23.3621 7.85875 23.3938 8.06922 23.4137 8.28096C23.4365 8.48675 23.4692 8.69582 23.4921 8.90161C23.5345 9.2446 23.5574 9.41446 23.6064 9.93385C23.3255 10.4042 23.2569 10.5872 22.989 10.9922V11.0282C23.4006 11.0282 23.4921 11.0282 23.7959 11.0282L23.8612 10.953C24.0899 10.4565 25.8211 7.46431 25.8211 7.46431" fill="white"/>
<path d="M11.0269 7.75504C11.2589 7.59171 11.2883 7.36959 11.0923 7.25199C10.9663 7.19814 10.8286 7.17767 10.6924 7.19255C10.5562 7.20742 10.4262 7.25715 10.3148 7.33692C10.0796 7.49372 10.0535 7.71911 10.2495 7.83671C10.3754 7.89009 10.5128 7.9106 10.6488 7.89632C10.7848 7.88203 10.9149 7.83342 11.0269 7.75504Z" fill="white"/>
<path d="M23.8417 10.9922L23.5151 11.5769C23.4557 11.6912 23.3638 11.7853 23.251 11.8475C23.1383 11.9097 23.0097 11.9371 22.8814 11.9265H22.3391L22.4894 11.3777H22.5972C22.6403 11.3803 22.6835 11.3748 22.7246 11.3613C22.7526 11.3473 22.7764 11.3258 22.7932 11.2993L22.9924 10.9726L23.8417 10.9922Z" fill="white"/>
</g>
<defs>
<clipPath id="clip0_5330_26059">
<rect width="28" height="17.4984" fill="white" transform="translate(0 1.25)"/>
</clipPath>
</defs>
</svg>
