<svg width="28" height="20" viewBox="0 0 28 20" fill="none" xmlns="http://www.w3.org/2000/svg">
<path fill-rule="evenodd" clip-rule="evenodd" d="M0.565013 12.578C0.565013 12.049 0.286846 12.0838 0.020752 12.0782V11.9253C0.25148 11.9364 0.488062 11.9364 0.719401 11.9364C0.967934 11.9364 1.30537 11.9253 1.74378 11.9253C3.27693 11.9253 4.11204 12.9425 4.11204 13.9843C4.11204 14.5672 3.76863 16.0318 1.67256 16.0318C1.37086 16.0318 1.0922 16.0201 0.814034 16.0201C0.547818 16.0201 0.286846 16.0256 0.020752 16.0318V15.8787C0.375625 15.8431 0.547818 15.8316 0.565013 15.4316V12.578ZM1.14521 15.3372C1.14521 15.7904 1.47118 15.8431 1.76118 15.8431C3.04043 15.8431 3.46018 14.8844 3.46018 14.0079C3.46018 12.9078 2.74982 12.1137 1.60728 12.1137C1.36399 12.1137 1.25204 12.1309 1.14521 12.1372V15.3372Z" fill="#1A1919"/>
<path fill-rule="evenodd" clip-rule="evenodd" d="M4.31934 15.8788H4.43153C4.59726 15.8788 4.71579 15.8788 4.71579 15.6842V14.09C4.71579 13.8315 4.62714 13.7958 4.40775 13.6785V13.5846C4.68604 13.5015 5.01786 13.3905 5.04128 13.3728C5.08298 13.3491 5.11798 13.3428 5.14811 13.3428C5.17713 13.3428 5.18932 13.3782 5.18932 13.4257V15.6842C5.18932 15.8788 5.31981 15.8788 5.48578 15.8788H5.58603V16.0318C5.38469 16.0318 5.17713 16.0202 4.96469 16.0202C4.75153 16.0202 4.53824 16.0257 4.31934 16.0318V15.8788ZM4.95273 12.4372C4.79847 12.4372 4.66262 12.296 4.66262 12.1431C4.66262 11.9957 4.80493 11.8602 4.95273 11.8602C5.10639 11.8602 5.24297 11.9841 5.24297 12.1431C5.24297 12.3022 5.11237 12.4372 4.95273 12.4372Z" fill="#1A1919"/>
<path fill-rule="evenodd" clip-rule="evenodd" d="M6.14854 14.1254C6.14854 13.9081 6.08317 13.8493 5.80537 13.7374V13.6256C6.05952 13.5434 6.30207 13.4665 6.58658 13.3428C6.60451 13.3428 6.6217 13.3546 6.6217 13.4016V13.7841C6.95975 13.5434 7.24986 13.3428 7.64718 13.3428C8.14973 13.3428 8.32729 13.7077 8.32729 14.1666V15.6842C8.32729 15.8788 8.4579 15.8788 8.6235 15.8788H8.73033V16.0318C8.52241 16.0318 8.31546 16.0202 8.10254 16.0202C7.88925 16.0202 7.67596 16.0256 7.46279 16.0318V15.8788H7.56962C7.73547 15.8788 7.85339 15.8788 7.85339 15.6842V14.1611C7.85339 13.8253 7.64718 13.6608 7.30925 13.6608C7.11962 13.6608 6.81768 13.8135 6.6217 13.9435V15.6842C6.6217 15.8788 6.75255 15.8788 6.91841 15.8788H7.02475V16.0318C6.81768 16.0318 6.61036 16.0202 6.39683 16.0202C6.18415 16.0202 5.97074 16.0256 5.75781 16.0318V15.8788H5.86464C6.03025 15.8788 6.14854 15.8788 6.14854 15.6842V14.1254Z" fill="#1A1919"/>
<path fill-rule="evenodd" clip-rule="evenodd" d="M9.18032 14.4082C9.16824 14.4611 9.16824 14.5492 9.18032 14.7494C9.21519 15.3082 9.57714 15.7668 10.0503 15.7668C10.3764 15.7668 10.6312 15.5903 10.8498 15.373L10.9325 15.4554C10.6601 15.8142 10.3227 16.1203 9.83762 16.1203C8.89593 16.1203 8.70654 15.2138 8.70654 14.8375C8.70654 13.6843 9.48787 13.3428 9.90189 13.3428C10.382 13.3428 10.8975 13.6428 10.903 14.2667C10.903 14.3024 10.903 14.3373 10.8975 14.3727L10.844 14.4082H9.18032ZM10.2287 14.2198C10.3764 14.2198 10.3937 14.1432 10.3937 14.0723C10.3937 13.7728 10.2103 13.5315 9.87856 13.5315C9.51771 13.5315 9.26894 13.7958 9.19796 14.2198H10.2287Z" fill="#1A1919"/>
<path fill-rule="evenodd" clip-rule="evenodd" d="M11.0396 15.8788H11.1995C11.3647 15.8788 11.4832 15.8788 11.4832 15.6842V14.0313C11.4832 13.8493 11.2643 13.8135 11.1754 13.7664V13.6785C11.6076 13.496 11.8445 13.3428 11.8987 13.3428C11.9333 13.3428 11.9511 13.3605 11.9511 13.4196V13.9492H11.9636C12.1111 13.7198 12.3603 13.3428 12.7212 13.3428C12.8692 13.3428 13.0584 13.4428 13.0584 13.6547C13.0584 13.8135 12.9465 13.9554 12.7807 13.9554C12.5966 13.9554 12.5966 13.8135 12.3892 13.8135C12.2887 13.8135 11.9571 13.9492 11.9571 14.3024V15.6842C11.9571 15.8788 12.0754 15.8788 12.2412 15.8788H12.5725V16.0318C12.2469 16.0256 11.9991 16.0202 11.7442 16.0202C11.5014 16.0202 11.2526 16.0256 11.0396 16.0318V15.8788Z" fill="#1A1919"/>
<path fill-rule="evenodd" clip-rule="evenodd" d="M13.3187 15.2137C13.3959 15.602 13.6323 15.9319 14.0653 15.9319C14.4141 15.9319 14.5442 15.7199 14.5442 15.5141C14.5442 14.8196 13.2539 15.0434 13.2539 14.0963C13.2539 13.7664 13.5204 13.3429 14.1718 13.3429C14.3609 13.3429 14.6154 13.3962 14.8462 13.514L14.8877 14.1136H14.7516C14.6925 13.7432 14.4856 13.5315 14.1062 13.5315C13.8693 13.5315 13.6446 13.6666 13.6446 13.9196C13.6446 14.6084 15.0179 14.3962 15.0179 15.3199C15.0179 15.7079 14.7045 16.1203 13.9996 16.1203C13.763 16.1203 13.4842 16.0377 13.2776 15.9201L13.2122 15.2434L13.3187 15.2137Z" fill="#1A1919"/>
<path fill-rule="evenodd" clip-rule="evenodd" d="M20.3643 12.9899H20.2166C20.1039 12.3022 19.6124 12.0253 18.9498 12.0253C18.2681 12.0253 17.2797 12.478 17.2797 13.89C17.2797 15.0788 18.1326 15.932 19.0442 15.932C19.6298 15.932 20.1163 15.5318 20.2345 14.9137L20.3707 14.9488L20.2345 15.8081C19.9858 15.9612 19.3166 16.1203 18.9254 16.1203C17.5405 16.1203 16.6643 15.2317 16.6643 13.9081C16.6643 12.7017 17.7478 11.8367 18.9083 11.8367C19.3877 11.8367 19.8494 11.9901 20.3054 12.1491L20.3643 12.9899Z" fill="#1A1919"/>
<path fill-rule="evenodd" clip-rule="evenodd" d="M20.5781 15.8787H20.6902C20.8565 15.8787 20.9747 15.8787 20.9747 15.6841V12.408C20.9747 12.0252 20.886 12.0136 20.6608 11.9488V11.8545C20.8975 11.7782 21.1464 11.6725 21.271 11.6014C21.3353 11.5666 21.3831 11.5365 21.4006 11.5365C21.4368 11.5365 21.4485 11.5723 21.4485 11.6195V15.6841C21.4485 15.8787 21.5788 15.8787 21.7445 15.8787H21.8447V16.0318C21.644 16.0318 21.4368 16.0201 21.2235 16.0201C21.0104 16.0201 20.7975 16.0256 20.5781 16.0318V15.8787Z" fill="#1A1919"/>
<path fill-rule="evenodd" clip-rule="evenodd" d="M24.3797 15.7079C24.3797 15.8142 24.4444 15.8198 24.5448 15.8198C24.6163 15.8198 24.7047 15.8142 24.7822 15.8142V15.938C24.5275 15.9613 24.0418 16.0849 23.9291 16.1203L23.8996 16.1024V15.6258C23.5447 15.9139 23.272 16.1203 22.8511 16.1203C22.5314 16.1203 22.2001 15.9139 22.2001 15.4204V13.9138C22.2001 13.7606 22.1766 13.6135 21.8455 13.5846V13.4725C22.0587 13.4667 22.5314 13.4315 22.6086 13.4315C22.6743 13.4315 22.6743 13.4725 22.6743 13.6021V15.1199C22.6743 15.2965 22.6743 15.802 23.1893 15.802C23.3903 15.802 23.6568 15.6494 23.9053 15.4438V13.8607C23.9053 13.7432 23.6213 13.6785 23.4085 13.62V13.5142C23.9408 13.4783 24.2727 13.4315 24.3319 13.4315C24.3797 13.4315 24.3797 13.4725 24.3797 13.5374V15.7079Z" fill="#1A1919"/>
<path fill-rule="evenodd" clip-rule="evenodd" d="M25.5576 13.7664C25.7943 13.5668 26.1141 13.3428 26.4398 13.3428C27.1267 13.3428 27.5412 13.9376 27.5412 14.5788C27.5412 15.3492 26.9725 16.1202 26.1255 16.1202C25.6878 16.1202 25.4568 15.9786 25.3026 15.9139L25.1255 16.0492L25.0014 15.9848C25.0543 15.6377 25.0842 15.2965 25.0842 14.9374V12.408C25.0842 12.0252 24.995 12.0136 24.77 11.9488V11.8545C25.0071 11.7782 25.2555 11.6725 25.3798 11.6014C25.4451 11.5666 25.4923 11.5365 25.5104 11.5365C25.5456 11.5365 25.5576 11.5724 25.5576 11.6195V13.7664ZM25.5575 15.3667C25.5575 15.5902 25.7708 15.967 26.1674 15.967C26.8008 15.967 27.0672 15.3491 27.0672 14.8253C27.0672 14.1901 26.5822 13.6607 26.1205 13.6607C25.9005 13.6607 25.7173 13.8021 25.5575 13.9376V15.3667Z" fill="#1A1919"/>
<path fill-rule="evenodd" clip-rule="evenodd" d="M0.013916 19.4526H0.0591593C0.175011 19.4526 0.297449 19.4368 0.297449 19.2702V17.5931C0.297449 17.4263 0.175011 17.4104 0.0591593 17.4104H0.013916V17.3142C0.139524 17.3142 0.332814 17.3269 0.491105 17.3269C0.652078 17.3269 0.845124 17.3142 0.996585 17.3142V17.4104H0.951098C0.835734 17.4104 0.713053 17.4263 0.713053 17.5931V19.2702C0.713053 19.4368 0.835734 19.4526 0.951098 19.4526H0.996585V19.5488C0.842075 19.5488 0.648297 19.5364 0.487812 19.5364C0.329643 19.5364 0.139524 19.5488 0.013916 19.5488V19.4526Z" fill="#1A1919"/>
<path fill-rule="evenodd" clip-rule="evenodd" d="M0.996693 19.5625C0.840842 19.5625 0.64804 19.5496 0.487676 19.5496C0.329995 19.5496 0.140486 19.5625 0.0140242 19.5625H0V19.4388H0.0590236C0.175973 19.436 0.282313 19.4266 0.283289 19.2702V17.5931C0.282313 17.4365 0.175973 17.4263 0.0590236 17.4242H0V17.3003H0.0140242C0.140486 17.3003 0.333654 17.3128 0.491213 17.3128C0.651454 17.3128 0.844378 17.3003 0.996693 17.3003H1.01108V17.4242H0.951816C0.834744 17.4263 0.727795 17.4365 0.727185 17.5931V19.2702C0.727795 19.4266 0.834744 19.436 0.951816 19.4388H1.01108V19.5625H0.996693ZM0.982765 19.5351L0.982887 19.467H0.95179C0.836547 19.467 0.699598 19.4469 0.698866 19.2702V17.5932C0.699598 17.4161 0.836547 17.3964 0.95179 17.3964H0.982765V17.328C0.834108 17.3281 0.647404 17.341 0.491186 17.341C0.33814 17.341 0.152898 17.329 0.028144 17.328V17.3964H0.0589972C0.173874 17.3964 0.311067 17.4161 0.311067 17.5932V19.2702C0.311067 19.4469 0.173874 19.467 0.0589972 19.467H0.028144V19.5351C0.152898 19.534 0.334847 19.5223 0.48765 19.5223C0.644599 19.5223 0.830816 19.5343 0.982765 19.5351Z" fill="#1A1919"/>
<path fill-rule="evenodd" clip-rule="evenodd" d="M3.20984 18.9178L3.21631 18.9115V17.7114C3.21631 17.4487 3.03241 17.4103 2.93582 17.4103H2.86485V17.3142C3.01655 17.3142 3.16472 17.3269 3.31594 17.3269C3.44801 17.3269 3.58069 17.3142 3.71227 17.3142V17.4103H3.66435C3.52862 17.4103 3.37716 17.4359 3.37716 17.8168V19.2734C3.37716 19.3856 3.38033 19.4975 3.39618 19.5969H3.27374L1.61487 17.759V19.0783C1.61487 19.357 1.66938 19.4526 1.91742 19.4526H1.9723V19.5488C1.83376 19.5488 1.69535 19.5363 1.55682 19.5363C1.41218 19.5363 1.26377 19.5488 1.11865 19.5488V19.4526H1.1639C1.38609 19.4526 1.45377 19.3021 1.45377 19.0468V17.698C1.45377 17.5189 1.30511 17.4103 1.16072 17.4103H1.11865V17.3142C1.24085 17.3142 1.3667 17.3269 1.48889 17.3269C1.58584 17.3269 1.67925 17.3142 1.77584 17.3142L3.20984 18.9178Z" fill="#1A1919"/>
<path fill-rule="evenodd" clip-rule="evenodd" d="M3.39629 19.6103L3.26361 19.6059L1.62863 17.7951V19.0783C1.63253 19.3566 1.67509 19.4357 1.91765 19.4388H1.98668V19.5625H1.97241C1.83302 19.5625 1.69436 19.5496 1.55692 19.5496C1.41266 19.5496 1.26461 19.5625 1.11864 19.5625H1.10449V19.4388H1.164C1.37693 19.4376 1.43778 19.3016 1.4401 19.0466V17.6985C1.43949 17.528 1.29876 17.4242 1.16095 17.4242H1.10449V17.3003H1.11864C1.24181 17.3003 1.3679 17.3128 1.48876 17.3128C1.58485 17.3128 1.6779 17.3003 1.78656 17.3052L3.20239 18.8889V17.7114C3.2008 17.4572 3.02983 17.4263 2.93605 17.4242H2.85081V17.3003H2.86508C3.01727 17.3003 3.16556 17.3128 3.31605 17.3128C3.44714 17.3128 3.57921 17.3003 3.71238 17.3003H3.72653V17.4242H3.66446C3.53141 17.4276 3.39495 17.4393 3.39105 17.8168V19.2734C3.39105 19.3854 3.39458 19.4972 3.41007 19.5944L3.413 19.6103H3.39629ZM3.274 19.5825H3.38059C3.3662 19.4861 3.36364 19.3799 3.36364 19.2734V17.8168C3.36364 17.4326 3.52571 17.3964 3.66449 17.3961H3.69839V17.328C3.57144 17.329 3.44425 17.3406 3.31608 17.3406C3.16852 17.3406 3.0251 17.329 2.8795 17.328L2.87913 17.3961H2.93608C3.0351 17.3964 3.23035 17.4401 3.23035 17.7114L3.22608 18.9216L3.21974 18.9278L3.20876 18.9381L1.77598 17.328C1.68025 17.328 1.58708 17.3406 1.48878 17.3406C1.37074 17.3406 1.24976 17.329 1.13294 17.328L1.13233 17.3961H1.16098C1.31208 17.3964 1.46757 17.511 1.46757 17.6985V19.0466C1.46757 19.3028 1.39574 19.4664 1.16403 19.4672L1.13294 19.4664V19.5351C1.27245 19.534 1.41622 19.5223 1.55695 19.5223C1.69134 19.5223 1.82549 19.534 1.95841 19.5351V19.4672H1.91768C1.66415 19.4664 1.60134 19.3566 1.6011 19.0783V17.7232L3.274 19.5825ZM3.21013 18.9179L3.22025 18.9086L3.21013 18.9179ZM3.20244 18.9115V18.9103L3.19988 18.9082L3.20244 18.9115Z" fill="#1A1919"/>
<path fill-rule="evenodd" clip-rule="evenodd" d="M4.19516 17.4743C3.95322 17.4743 3.94383 17.5322 3.89553 17.7656H3.79883C3.81151 17.6759 3.82749 17.5864 3.83749 17.4936C3.85041 17.4035 3.85688 17.3142 3.85688 17.2216H3.93407C3.96005 17.3177 4.04053 17.3142 4.12797 17.3142H5.78965C5.87709 17.3142 5.95746 17.3111 5.96404 17.215L6.04099 17.2281C6.02855 17.3142 6.01538 17.4007 6.00599 17.4874C5.99965 17.5738 5.99965 17.6599 5.99965 17.7463L5.90282 17.782C5.89624 17.6637 5.88026 17.4743 5.66441 17.4743H5.136V19.1774C5.136 19.4244 5.24893 19.4526 5.40332 19.4526H5.46478V19.5488C5.33905 19.5488 5.11344 19.5365 4.93979 19.5365C4.74625 19.5365 4.52053 19.5488 4.3948 19.5488V19.4526H4.45626C4.63382 19.4526 4.72357 19.4368 4.72357 19.1841V17.4743H4.19516Z" fill="#1A1919"/>
<path fill-rule="evenodd" clip-rule="evenodd" d="M5.46501 19.5625C5.33806 19.5625 5.1127 19.5497 4.93977 19.5497C4.74648 19.5497 4.52112 19.5625 4.39478 19.5625H4.381V19.4387H4.45624C4.6338 19.4346 4.70514 19.4323 4.70917 19.184V17.4879H4.19515V17.4599H4.73709V19.184C4.73709 19.441 4.63283 19.467 4.45624 19.4672H4.40856V19.5348C4.53563 19.534 4.7527 19.5222 4.93977 19.5222C5.10745 19.5222 5.32269 19.534 5.45037 19.5348V19.4672H5.4033C5.24745 19.467 5.12209 19.4289 5.12209 19.1774V17.4599H5.6644C5.88049 17.4608 5.90915 17.6433 5.91586 17.7624L5.98561 17.7368C5.98561 17.6532 5.98598 17.5695 5.99171 17.4854C6.00122 17.4026 6.01293 17.3213 6.025 17.2393L5.9761 17.2312C5.9611 17.3244 5.87025 17.3293 5.78952 17.3281H4.11112C4.03527 17.3282 3.95271 17.3246 3.92369 17.2353H3.87052C3.87003 17.3237 3.86393 17.4097 3.85174 17.495C3.8421 17.5829 3.82735 17.6674 3.81564 17.7522H3.88442C3.92674 17.5289 3.9543 17.4568 4.19515 17.4599V17.4879C3.95649 17.4927 3.96174 17.5323 3.90918 17.7688L3.90686 17.7797H3.78271L3.78442 17.7631C3.79759 17.6738 3.81393 17.5839 3.82332 17.491C3.83674 17.4021 3.84284 17.3133 3.84284 17.2216V17.2074H3.94515L3.94759 17.2175C3.9693 17.2982 4.02893 17.2988 4.11112 17.3002H5.78952C5.87927 17.2988 5.94464 17.2976 5.95012 17.2138L5.95122 17.1987L5.96586 17.2016L6.05695 17.2159L6.05463 17.2301C6.04183 17.316 6.02927 17.4021 6.01951 17.4879C6.01354 17.5737 6.01354 17.6598 6.01354 17.7463V17.756L6.00415 17.7597L5.89013 17.8012L5.88939 17.7826C5.88049 17.6622 5.86805 17.4879 5.6644 17.4879H5.15014V19.1774C5.15331 19.4187 5.24965 19.4357 5.4033 19.4387H5.47867V19.5625H5.46501Z" fill="#1A1919"/>
<path fill-rule="evenodd" clip-rule="evenodd" d="M6.1438 19.4526H6.18916C6.30477 19.4526 6.42758 19.4368 6.42758 19.2702V17.5931C6.42758 17.4263 6.30477 17.4104 6.18916 17.4104H6.1438V17.3142C6.33965 17.3142 6.6755 17.3269 6.94562 17.3269C7.21671 17.3269 7.55134 17.3142 7.77036 17.3142C7.76475 17.4519 7.7678 17.6637 7.77731 17.8042L7.68024 17.8297C7.66475 17.6215 7.6261 17.4555 7.28769 17.4555H6.84037V18.2937H7.22305C7.41634 18.2937 7.45842 18.1852 7.47756 18.0122H7.57415C7.56768 18.1372 7.56427 18.262 7.56427 18.3867C7.56427 18.5086 7.56768 18.6302 7.57415 18.7516L7.47756 18.7707C7.45842 18.5789 7.44878 18.4541 7.22622 18.4541H6.84037V19.1996C6.84037 19.408 7.02647 19.408 7.23281 19.408C7.61951 19.408 7.79012 19.3822 7.88682 19.0177L7.9767 19.0397C7.93487 19.2097 7.89646 19.3789 7.86756 19.5488C7.6611 19.5488 7.29061 19.5364 7.00123 19.5364C6.71062 19.5364 6.32758 19.5488 6.1438 19.5488V19.4526Z" fill="#1A1919"/>
<path fill-rule="evenodd" clip-rule="evenodd" d="M7.86754 19.5625C7.66084 19.5625 7.29011 19.5492 7.00109 19.5492C6.71085 19.5492 6.32793 19.5625 6.14391 19.5625H6.13037V19.4388H6.18927C6.30586 19.4368 6.41195 19.4266 6.41342 19.2702V17.5931C6.41195 17.4367 6.30586 17.4263 6.18927 17.4242H6.13037V17.3003H6.14391C6.34073 17.3003 6.67585 17.3128 6.94585 17.3128C7.2167 17.3128 7.55121 17.3003 7.77059 17.3003H7.78486L7.78437 17.3151C7.7823 17.3629 7.78096 17.4199 7.78096 17.4801C7.78096 17.5907 7.78437 17.712 7.79071 17.8031L7.79132 17.8145L7.78047 17.8178L7.66718 17.8473L7.66669 17.8308C7.64767 17.6231 7.61962 17.472 7.28792 17.4688H6.85365L6.85341 18.2796H7.22316C7.40889 18.2777 7.44206 18.1834 7.46401 18.0107L7.46474 17.9979H7.58864L7.5884 18.0125C7.58218 18.1376 7.5784 18.262 7.5784 18.3867C7.5784 18.5078 7.58218 18.6293 7.5884 18.751L7.58864 18.7626L7.57694 18.7653L7.46474 18.7874L7.46401 18.7724C7.44169 18.577 7.44023 18.4699 7.22645 18.4675H6.85365V19.1996C6.85414 19.3942 7.02292 19.3931 7.23292 19.3942C7.62084 19.3919 7.7762 19.373 7.87327 19.0139L7.87657 19.001L7.8901 19.0031L7.99339 19.0298L7.99047 19.043C7.94864 19.2124 7.91022 19.3817 7.88108 19.5511L7.87864 19.5625H7.86754ZM7.85555 19.5349C7.88372 19.373 7.92043 19.2113 7.95994 19.0502L7.89652 19.0343C7.80006 19.3924 7.61311 19.4243 7.23287 19.4219C7.02983 19.4219 6.82691 19.4219 6.82581 19.1996V18.4402H7.22641C7.45141 18.4379 7.47409 18.5726 7.49019 18.7547L7.5597 18.7406C7.55348 18.6225 7.55031 18.504 7.55031 18.3867C7.55031 18.2665 7.55348 18.1466 7.5597 18.0257H7.49019C7.47202 18.193 7.41946 18.3097 7.22312 18.3076H6.82581V17.4411H7.28787C7.62287 17.4384 7.67836 17.6107 7.69299 17.8121L7.76238 17.7933C7.75677 17.7031 7.75299 17.587 7.75299 17.4801C7.75299 17.4253 7.75445 17.3733 7.75628 17.328C7.53738 17.329 7.21068 17.3406 6.94581 17.3406C6.68105 17.3406 6.3552 17.329 6.15801 17.328V17.3961H6.18923C6.30386 17.3964 6.44093 17.4161 6.44167 17.5932V19.2702C6.44093 19.4469 6.30386 19.4664 6.18923 19.4672H6.15801V19.5349C6.34557 19.5343 6.718 19.5223 7.00105 19.5223C7.28544 19.5223 7.64787 19.5343 7.85555 19.5349Z" fill="#1A1919"/>
<path fill-rule="evenodd" clip-rule="evenodd" d="M8.41195 17.6532C8.41195 17.4199 8.28292 17.4103 8.18293 17.4103H8.12476V17.3142C8.22793 17.3142 8.42768 17.3269 8.62438 17.3269C8.81731 17.3269 8.97218 17.3142 9.14291 17.3142C9.54827 17.3142 9.90985 17.4229 9.90985 17.8778C9.90985 18.1657 9.71644 18.3415 9.46205 18.4414L10.0127 19.2604C10.1031 19.3959 10.167 19.4338 10.3253 19.4526V19.5488C10.2188 19.5488 10.1157 19.5364 10.0097 19.5364C9.90985 19.5364 9.80632 19.5488 9.70693 19.5488C9.45864 19.2256 9.24584 18.88 9.03657 18.5113H8.82426V19.1968C8.82426 19.4432 8.93999 19.4526 9.08767 19.4526H9.14608V19.5488C8.96206 19.5488 8.77597 19.5364 8.59194 19.5364C8.43731 19.5364 8.28585 19.5488 8.12476 19.5488V19.4526H8.18293C8.30256 19.4526 8.41195 19.3984 8.41195 19.2801V17.6532ZM8.82428 18.3957H8.98172C9.30427 18.3957 9.47793 18.2744 9.47793 17.8965C9.47793 17.6119 9.29427 17.4294 9.0072 17.4294C8.9105 17.4294 8.86928 17.4392 8.82428 17.4423V18.3957Z" fill="#1A1919"/>
<path fill-rule="evenodd" clip-rule="evenodd" d="M10.3254 19.5625C10.2174 19.5625 10.115 19.5496 10.009 19.5496C9.91081 19.5496 9.80777 19.5625 9.69557 19.5572C9.44838 19.2348 9.23656 18.8912 9.02851 18.5257H8.83815V19.1962C8.84168 19.4372 8.93888 19.4354 9.08778 19.4388H9.16009V19.5625H9.14583C8.96168 19.5625 8.77449 19.5496 8.59193 19.5496C8.43803 19.5496 8.28669 19.5625 8.12486 19.5625H8.11084V19.4388H8.18303C8.29889 19.4379 8.39681 19.3878 8.3973 19.2801V17.6533C8.39486 17.4263 8.28303 17.4274 8.18303 17.4242H8.11084V17.3003H8.12486C8.22913 17.3003 8.42803 17.3128 8.62449 17.3128C8.81681 17.3128 8.97132 17.3003 9.14302 17.3003C9.54923 17.3011 9.92301 17.4122 9.92399 17.8773C9.92399 18.1662 9.73179 18.3467 9.48338 18.4474L10.0243 19.2528C10.1145 19.3856 10.1706 19.4188 10.3273 19.4388L10.339 19.4406V19.5625H10.3254ZM8.82425 18.4975H9.04437L9.04839 18.5046C9.25815 18.8724 9.46985 19.2181 9.70704 19.5351C9.80509 19.5351 9.90863 19.5223 10.009 19.5223C10.1118 19.5223 10.2113 19.5334 10.3113 19.5349V19.4646C10.1603 19.4463 10.0894 19.401 10.0014 19.2683L9.44058 18.435L9.45644 18.4285C9.70875 18.3298 9.8957 18.1588 9.89582 17.8773C9.8957 17.4332 9.54802 17.3302 9.14303 17.328C8.9734 17.328 8.81852 17.341 8.6245 17.341C8.43523 17.341 8.24402 17.329 8.13865 17.328V17.3961H8.18304C8.28304 17.3964 8.42535 17.4128 8.42535 17.6533V19.2802C8.42535 19.4086 8.30426 19.467 8.18304 19.4672H8.13865V19.5349C8.29353 19.5343 8.4406 19.5223 8.59194 19.5223C8.77181 19.5223 8.95376 19.5343 9.13193 19.5349V19.4672H9.08778C8.94108 19.467 8.80998 19.4489 8.80998 19.1962V18.4975H8.82425ZM8.82422 18.4096H8.80995V17.4294L8.82227 17.4285C8.86642 17.4249 8.90983 17.4161 9.00727 17.4161C9.30068 17.4161 9.49177 17.6055 9.49202 17.8974C9.49116 18.2796 9.30678 18.4095 8.98178 18.4096H8.82422ZM8.98181 18.3823C9.30071 18.3792 9.46144 18.2693 9.46461 17.8974C9.46266 17.6177 9.2879 17.4442 9.0073 17.443C8.92035 17.443 8.87925 17.451 8.83815 17.455V18.3823H8.98181Z" fill="#1A1919"/>
<path fill-rule="evenodd" clip-rule="evenodd" d="M12.5126 18.9178L12.5182 18.9115V17.7114C12.5182 17.4487 12.3351 17.4103 12.2384 17.4103H12.1678V17.3142C12.3193 17.3142 12.467 17.3269 12.6188 17.3269C12.7512 17.3269 12.8823 17.3142 13.0154 17.3142V17.4103H12.9668C12.8315 17.4103 12.6801 17.4359 12.6801 17.8168V19.2734C12.6801 19.3856 12.6833 19.4975 12.6992 19.5969H12.5772L10.9182 17.759V19.0783C10.9182 19.357 10.9726 19.4526 11.2206 19.4526H11.2755V19.5488C11.1371 19.5488 10.9983 19.5363 10.8599 19.5363C10.7144 19.5363 10.5665 19.5488 10.4216 19.5488V19.4526H10.4664C10.6888 19.4526 10.7569 19.3021 10.7569 19.0468V17.698C10.7569 17.5189 10.6085 17.4103 10.4636 17.4103H10.4216V17.3142C10.5436 17.3142 10.6702 17.3269 10.7924 17.3269C10.8881 17.3269 10.982 17.3142 11.0788 17.3142L12.5126 18.9178Z" fill="#1A1919"/>
<path fill-rule="evenodd" clip-rule="evenodd" d="M12.6991 19.6103L12.5668 19.6059L10.9316 17.7954V19.0781C10.9354 19.357 10.9778 19.4357 11.2208 19.4388H11.289V19.5625H11.275C11.1358 19.5625 10.9975 19.5492 10.8594 19.5492C10.7156 19.5492 10.5667 19.5625 10.4216 19.5625H10.4072V19.4388H10.4665C10.6793 19.4379 10.7403 19.3016 10.7423 19.0459V17.698C10.742 17.5274 10.6015 17.4242 10.4637 17.4242H10.4072V17.3003H10.4216C10.5447 17.3003 10.6708 17.3128 10.7923 17.3128C10.887 17.3128 10.9803 17.3003 11.0883 17.3044L12.5046 18.8889V17.7114C12.5038 17.4572 12.3322 17.4257 12.2385 17.4242H12.1535V17.3003H12.1676C12.3198 17.3003 12.4683 17.3128 12.6189 17.3128C12.7501 17.3128 12.8821 17.3003 13.0149 17.3003H13.0291V17.4242H12.9669C12.834 17.4274 12.6971 17.4393 12.6939 17.8168V19.2734C12.6939 19.3854 12.6967 19.4964 12.7132 19.5946L12.7148 19.6103H12.6991ZM12.5772 19.5825H12.6828C12.6686 19.4868 12.6658 19.3799 12.6658 19.2734V17.8168C12.6661 17.4326 12.829 17.397 12.9669 17.3961H13.0008V17.328C12.874 17.329 12.7467 17.3406 12.6189 17.3406C12.4708 17.3406 12.3273 17.329 12.1816 17.328V17.3961H12.2385C12.3378 17.397 12.5329 17.4401 12.5329 17.7114L12.5283 18.9216L12.5224 18.9278L12.5123 18.9383L11.0789 17.328C10.983 17.328 10.8896 17.3406 10.7923 17.3406C10.6728 17.3406 10.5524 17.329 10.4354 17.328V17.3961H10.4637C10.6152 17.397 10.7702 17.5105 10.7702 17.698V19.0459C10.7702 19.3028 10.6974 19.4664 10.4665 19.4672L10.4354 19.467V19.535C10.5745 19.534 10.718 19.5223 10.8594 19.5223C10.9945 19.5223 11.1284 19.534 11.2616 19.535V19.4672H11.2207C10.9672 19.467 10.904 19.357 10.9033 19.0782V17.7237L12.5772 19.5825ZM12.5123 18.9179L12.5228 18.9086L12.5123 18.9179ZM12.5046 18.9115V18.9106L12.5023 18.9082L12.5046 18.9115Z" fill="#1A1919"/>
<path fill-rule="evenodd" clip-rule="evenodd" d="M13.5333 19.0911C13.5008 19.1995 13.4619 19.2836 13.4619 19.3405C13.4619 19.4368 13.5977 19.4527 13.7037 19.4527H13.7396V19.5488C13.6102 19.5418 13.4788 19.5364 13.3491 19.5364C13.2332 19.5364 13.1178 19.5418 13.0015 19.5488V19.4527H13.0211C13.1465 19.4527 13.2532 19.3789 13.301 19.2444L13.8165 17.7755C13.8585 17.6567 13.9166 17.4968 13.9362 17.378C14.0386 17.343 14.168 17.2794 14.229 17.2405C14.239 17.2372 14.245 17.2339 14.2547 17.2339C14.2645 17.2339 14.2705 17.2339 14.2775 17.244C14.2871 17.2693 14.2964 17.2982 14.3064 17.3237L14.8995 18.9983C14.9381 19.11 14.9764 19.2284 15.0177 19.3249C15.0569 19.4147 15.1246 19.4527 15.2313 19.4527H15.2506V19.5488C15.1055 19.5418 14.9601 19.5364 14.8062 19.5364C14.6483 19.5364 14.4867 19.5418 14.3224 19.5488V19.4527H14.3579C14.4316 19.4527 14.558 19.4399 14.558 19.3598C14.558 19.3185 14.5289 19.232 14.4929 19.1291L14.3674 18.758H13.6362L13.5333 19.0911ZM14.0037 17.6728H13.997L13.6976 18.5788H14.2995L14.0037 17.6728Z" fill="#1A1919"/>
<path fill-rule="evenodd" clip-rule="evenodd" d="M15.2496 19.5625C15.1048 19.5563 14.9596 19.5492 14.8062 19.5492C14.6483 19.5492 14.4875 19.5563 14.3231 19.5625L14.3083 19.5632V19.4382H14.3579C14.4325 19.4382 14.5433 19.4216 14.5435 19.3599C14.5442 19.3234 14.5153 19.2357 14.4798 19.1339L14.3572 18.7717H13.6466L13.5463 19.0952C13.5139 19.204 13.4747 19.2886 13.4753 19.3407C13.4764 19.4189 13.5967 19.4382 13.7036 19.4382H13.7531V19.5632L13.7385 19.5625C13.6097 19.5563 13.4783 19.5492 13.3494 19.5492C13.2344 19.5492 13.1179 19.5563 13.0025 19.5625L12.9875 19.5632V19.4382H13.021C13.1407 19.4379 13.2407 19.3699 13.2873 19.2399L13.8033 17.7705C13.8449 17.652 13.9034 17.4928 13.9312 17.3649C14.0323 17.3308 14.1619 17.2662 14.2238 17.2276C14.2328 17.2244 14.2417 17.2203 14.2546 17.2203C14.2625 17.2198 14.2798 17.2219 14.2903 17.2386C14.2995 17.2649 14.3097 17.2936 14.3195 17.3194L14.9126 18.9937C14.9506 19.1058 14.9891 19.224 15.0313 19.3189C15.0686 19.4042 15.1278 19.4379 15.2313 19.4382H15.2639V19.5632L15.2496 19.5625ZM14.3365 19.534C14.4958 19.5284 14.6523 19.5222 14.8062 19.5222C14.9556 19.5222 15.0961 19.5284 15.2361 19.534V19.4669H15.2313C15.1208 19.4677 15.0449 19.4245 15.0054 19.3301C14.9634 19.2334 14.9243 19.1146 14.8862 19.0025L14.293 17.3281C14.2833 17.3025 14.2741 17.2739 14.2657 17.2511C14.2626 17.248 14.2633 17.248 14.2607 17.248H14.2546C14.2482 17.248 14.2443 17.2499 14.236 17.252C14.174 17.292 14.0449 17.3551 13.949 17.3801C13.9294 17.5014 13.8713 17.6613 13.8295 17.7799L13.314 19.249C13.265 19.3881 13.1517 19.4672 13.021 19.4669H13.0156V19.534C13.1261 19.5284 13.2376 19.5222 13.3494 19.5222C13.474 19.5222 13.6011 19.5284 13.7244 19.534V19.4669H13.7037C13.5984 19.4655 13.4518 19.4541 13.4482 19.3407C13.4484 19.2772 13.4879 19.1953 13.5195 19.0871L13.5332 19.0911L13.5195 19.0867L13.6256 18.7446H14.3768L14.5058 19.1247C14.5421 19.2277 14.5713 19.3131 14.5713 19.3598C14.5666 19.4579 14.431 19.4651 14.3579 19.4669H14.3365V19.534ZM13.6779 18.5927L13.9863 17.6587H14.0037V17.6729L14.0002 17.6738L14.0037 17.6729V17.6587H14.0133L14.3195 18.5927H13.6779ZM13.7164 18.5647H14.2804L14.0001 17.7069L13.7164 18.5647ZM13.9896 17.6769L13.997 17.6746L13.9896 17.6769Z" fill="#1A1919"/>
<path fill-rule="evenodd" clip-rule="evenodd" d="M15.3923 17.4743C15.1507 17.4743 15.141 17.5322 15.0924 17.7656H14.9956C15.0083 17.6759 15.0248 17.5864 15.0348 17.4936C15.0473 17.4035 15.0535 17.3142 15.0535 17.2216H15.1315C15.1567 17.3177 15.2374 17.3142 15.3244 17.3142H16.987C17.0736 17.3142 17.1541 17.3111 17.1605 17.215L17.2375 17.2281C17.2256 17.3142 17.2128 17.4007 17.2026 17.4874C17.1956 17.5738 17.1956 17.6599 17.1956 17.7463L17.0994 17.782C17.0936 17.6637 17.0774 17.4743 16.8611 17.4743H16.3328V19.1774C16.3328 19.4244 16.4457 19.4526 16.6001 19.4526H16.6617V19.5488C16.5358 19.5488 16.3107 19.5365 16.1363 19.5365C15.9434 19.5365 15.7173 19.5488 15.5917 19.5488V19.4526H15.653C15.8306 19.4526 15.9205 19.4368 15.9205 19.1841V17.4743H15.3923Z" fill="#1A1919"/>
<path fill-rule="evenodd" clip-rule="evenodd" d="M16.6615 19.5625C16.535 19.5625 16.3091 19.5497 16.1359 19.5497C15.9435 19.5497 15.7179 19.5625 15.5917 19.5625H15.5774V19.4387H15.6529C15.8306 19.4346 15.9018 19.4323 15.9061 19.184L15.9058 17.4879H15.3922V17.4599H15.9342V19.184C15.9342 19.441 15.8298 19.4664 15.6529 19.467H15.6055V19.5351C15.7328 19.534 15.9492 19.5222 16.1359 19.5222C16.3044 19.5222 16.52 19.534 16.6472 19.5351V19.467H16.5998C16.4446 19.4664 16.3191 19.4293 16.3189 19.1774V17.4599H16.8609C17.0774 17.4608 17.1056 17.6433 17.1118 17.7624L17.1818 17.7368C17.1818 17.6532 17.1823 17.5695 17.1889 17.4858C17.1975 17.4032 17.2097 17.3213 17.2214 17.2396L17.1728 17.2312C17.158 17.3244 17.067 17.3296 16.9869 17.3281H15.3078C15.2318 17.329 15.1496 17.3246 15.1203 17.235H15.0677C15.0669 17.3236 15.0606 17.4097 15.0479 17.495C15.0391 17.5833 15.0236 17.668 15.0113 17.7522H15.0806C15.1229 17.5289 15.1508 17.4564 15.3922 17.4599V17.4879C15.1533 17.4921 15.1585 17.5323 15.106 17.7688L15.1036 17.7797H14.9792L14.9812 17.7639C14.9947 17.6738 15.0106 17.5839 15.02 17.4917C15.0331 17.4021 15.0391 17.3133 15.0391 17.2216V17.2074H15.1414L15.1441 17.2175C15.1667 17.2982 15.2253 17.2988 15.3078 17.3002H16.9869C17.076 17.2988 17.141 17.2976 17.1468 17.2141L17.1473 17.1987L17.1623 17.2016L17.2537 17.2159L17.2515 17.2301C17.2382 17.316 17.226 17.4021 17.2163 17.4879C17.2097 17.5737 17.2097 17.6599 17.2097 17.7463V17.756L17.2003 17.7597L17.0863 17.8012L17.0858 17.7826C17.0774 17.6622 17.0646 17.4879 16.8609 17.4879H16.3465V19.1774C16.3498 19.4187 16.4463 19.4357 16.5998 19.4387H16.675V19.5625H16.6615Z" fill="#1A1919"/>
<path fill-rule="evenodd" clip-rule="evenodd" d="M17.3567 19.4526H17.4018C17.5179 19.4526 17.6399 19.4368 17.6399 19.2702V17.5931C17.6399 17.4263 17.5179 17.4104 17.4018 17.4104H17.3567V17.3142C17.4824 17.3142 17.6753 17.3269 17.833 17.3269C17.9945 17.3269 18.1879 17.3142 18.3396 17.3142V17.4104H18.2944C18.1779 17.4104 18.0555 17.4263 18.0555 17.5931V19.2702C18.0555 19.4368 18.1779 19.4526 18.2944 19.4526H18.3396V19.5488C18.1848 19.5488 17.9913 19.5364 17.8305 19.5364C17.6723 19.5364 17.4824 19.5488 17.3567 19.5488V19.4526Z" fill="#1A1919"/>
<path fill-rule="evenodd" clip-rule="evenodd" d="M18.3397 19.5625C18.184 19.5625 17.9913 19.5492 17.8306 19.5492C17.6729 19.5492 17.4826 19.5625 17.3568 19.5625H17.343V19.4388H17.402C17.5181 19.4368 17.6252 19.4266 17.6259 19.2702V17.5931C17.6252 17.4367 17.5181 17.4263 17.402 17.4242H17.343V17.3003H17.3568C17.4826 17.3003 17.6764 17.3128 17.8331 17.3128C17.9937 17.3128 18.187 17.3003 18.3397 17.3003H18.3531V17.4242H18.2946C18.1767 17.4263 18.0707 17.4367 18.0696 17.5931V19.2702C18.0707 19.4266 18.1767 19.4368 18.2946 19.4388H18.3531V19.5625H18.3397ZM18.3251 19.5349V19.467H18.2946C18.179 19.467 18.0423 19.4469 18.0423 19.2702V17.5932C18.0423 17.4161 18.179 17.3964 18.2946 17.3961H18.3251V17.328C18.1765 17.329 17.99 17.3406 17.8331 17.3406C17.6802 17.3406 17.4958 17.329 17.3708 17.328V17.3961H17.402C17.5164 17.3964 17.6537 17.4161 17.6541 17.5932V19.2702C17.6537 19.4469 17.5164 19.467 17.402 19.467H17.3708V19.5349C17.495 19.5334 17.6772 19.5223 17.8306 19.5223C17.9868 19.5223 18.1731 19.534 18.3251 19.5349Z" fill="#1A1919"/>
<path fill-rule="evenodd" clip-rule="evenodd" d="M19.6242 17.2662C20.311 17.2662 20.8584 17.6892 20.8584 18.3711C20.8584 19.1075 20.3267 19.5969 19.6408 19.5969C18.9575 19.5969 18.4358 19.1358 18.4358 18.4474C18.4358 17.7819 18.9543 17.2662 19.6242 17.2662ZM19.6728 19.4559C20.2981 19.4559 20.4071 18.9081 20.4071 18.4413C20.4071 17.9735 20.1532 17.4071 19.6181 17.4071C19.0544 17.4071 18.8868 17.9066 18.8868 18.3352C18.8868 18.9081 19.1511 19.4559 19.6728 19.4559Z" fill="#1A1919"/>
<path fill-rule="evenodd" clip-rule="evenodd" d="M18.4214 18.4474C18.4227 17.7742 18.9472 17.2534 19.6241 17.2523V17.2803C18.9617 17.2803 18.4494 17.7889 18.4487 18.4474C18.45 19.1281 18.9642 19.5822 19.6409 19.5825C20.3199 19.5822 20.8439 19.0998 20.8448 18.3706C20.8442 17.6972 20.3054 17.2809 19.6241 17.2803V17.2523C20.3158 17.253 20.871 17.6801 20.8722 18.3706C20.8715 19.1146 20.3334 19.6091 19.6409 19.6103C18.9517 19.6091 18.4227 19.1434 18.4214 18.4474ZM18.8726 18.3352C18.8736 17.9045 19.0427 17.3929 19.618 17.3929C20.165 17.3941 20.4201 17.971 20.4212 18.4414C20.4201 18.9082 20.3097 19.4691 19.673 19.4691V19.4419C20.2855 19.4415 20.392 18.9082 20.393 18.4414C20.393 17.9777 20.1416 17.422 19.618 17.4211C19.0653 17.4217 18.902 17.9088 18.9005 18.3352C18.9008 18.9055 19.1627 19.4411 19.673 19.4419V19.4691C19.1382 19.4686 18.8736 18.9116 18.8726 18.3352Z" fill="#1A1919"/>
<path fill-rule="evenodd" clip-rule="evenodd" d="M23.0294 18.9178L23.0361 18.9115V17.7114C23.0361 17.4487 22.8519 17.4103 22.7553 17.4103H22.6852V17.3142C22.8361 17.3142 22.9847 17.3269 23.1356 17.3269C23.2681 17.3269 23.4002 17.3142 23.5323 17.3142V17.4103H23.4839C23.3489 17.4103 23.1969 17.4359 23.1969 17.8168V19.2734C23.1969 19.3856 23.2003 19.4975 23.2166 19.5969H23.0941L21.4346 17.759V19.0783C21.4346 19.357 21.4896 19.4526 21.7371 19.4526H21.7924V19.5488C21.6537 19.5488 21.5154 19.5363 21.3769 19.5363C21.2318 19.5363 21.0835 19.5488 20.9385 19.5488V19.4526H20.9837C21.2064 19.4526 21.2736 19.3021 21.2736 19.0468V17.698C21.2736 17.5189 21.1259 17.4103 20.9802 17.4103H20.9385V17.3142C21.0609 17.3142 21.1864 17.3269 21.3091 17.3269C21.4055 17.3269 21.4985 17.3142 21.5955 17.3142L23.0294 18.9178Z" fill="#1A1919"/>
<path fill-rule="evenodd" clip-rule="evenodd" d="M23.2166 19.6103L23.0833 19.6059L21.4483 17.7954V19.0783C21.4521 19.357 21.4947 19.4354 21.7366 19.4382H21.806V19.5625H21.7924C21.6528 19.5625 21.5146 19.5496 21.3767 19.5496C21.2324 19.5496 21.0841 19.5625 20.938 19.5625H20.9248V19.4382H20.9835C21.1958 19.4376 21.257 19.3016 21.2596 19.0466V17.698C21.2594 17.5274 21.1186 17.4242 20.9802 17.4242H20.9248V17.3003H20.938C21.0615 17.3003 21.1871 17.3128 21.3088 17.3128C21.4044 17.3128 21.497 17.3003 21.6063 17.3052L23.0218 18.8889V17.7114C23.0208 17.4572 22.8492 17.4263 22.7551 17.4242H22.6703V17.3003H22.685C22.8364 17.3003 22.985 17.3128 23.1351 17.3128C23.267 17.3128 23.3984 17.3003 23.5323 17.3003H23.5459V17.4242H23.4837C23.3509 17.4276 23.2138 17.4397 23.2111 17.8168V19.2734C23.2111 19.3854 23.2137 19.4972 23.2293 19.5946L23.2321 19.6103H23.2166ZM23.0939 19.5825H23.1995C23.1859 19.4861 23.1827 19.3799 23.1827 19.2734V17.8168C23.1827 17.432 23.3454 17.397 23.4837 17.3961H23.5186V17.328C23.3906 17.329 23.2639 17.3406 23.1351 17.3406C22.9884 17.3406 22.8444 17.329 22.6986 17.328V17.3961H22.7551C22.8547 17.397 23.0492 17.4407 23.0492 17.7114L23.0458 18.9216L23.0395 18.9278L23.0293 18.9383L21.5955 17.328C21.5002 17.328 21.4064 17.3406 21.3088 17.3406C21.19 17.3406 21.0691 17.329 20.9519 17.328V17.3961H20.9802C21.1316 17.397 21.2872 17.5105 21.2872 17.698V19.0466C21.2872 19.3028 21.2153 19.4664 20.9835 19.4672L20.9519 19.467V19.535C21.0918 19.534 21.2352 19.5223 21.3768 19.5223C21.5111 19.5223 21.6447 19.534 21.7782 19.535V19.4672H21.7366C21.4838 19.467 21.4204 19.357 21.4204 19.0783V17.7232L23.0939 19.5825ZM23.0293 18.9179L23.0395 18.9086L23.0293 18.9179ZM23.0218 18.9115V18.9106L23.0193 18.9082L23.0218 18.9115Z" fill="#1A1919"/>
<path fill-rule="evenodd" clip-rule="evenodd" d="M24.05 19.0911C24.0184 19.1995 23.9795 19.2836 23.9795 19.3405C23.9795 19.4368 24.1153 19.4527 24.2209 19.4527H24.2568V19.5488C24.1278 19.5418 23.9956 19.5364 23.8666 19.5364C23.7506 19.5364 23.6348 19.5418 23.5193 19.5488V19.4527H23.5376C23.6639 19.4527 23.7706 19.3789 23.8177 19.2444L24.3343 17.7755C24.3759 17.6567 24.4342 17.4968 24.4527 17.378C24.5562 17.343 24.6848 17.2794 24.7468 17.2405C24.7559 17.2372 24.7623 17.2339 24.7723 17.2339C24.7817 17.2339 24.7878 17.2339 24.7944 17.244C24.8041 17.2693 24.8138 17.2982 24.8235 17.3237L25.4163 18.9983C25.4547 19.11 25.4937 19.2284 25.5357 19.3249C25.5744 19.4147 25.6419 19.4527 25.7482 19.4527H25.768V19.5488C25.6228 19.5418 25.4777 19.5364 25.3229 19.5364C25.1654 19.5364 25.004 19.5418 24.8395 19.5488V19.4527H24.8752C24.9489 19.4527 25.0752 19.4399 25.0752 19.3598C25.0752 19.3185 25.0463 19.232 25.0104 19.1291L24.8848 18.758H24.1535L24.05 19.0911ZM24.5211 17.6728H24.5146L24.2142 18.5788H24.8176L24.5211 17.6728Z" fill="#1A1919"/>
<path fill-rule="evenodd" clip-rule="evenodd" d="M25.7664 19.5625C25.6212 19.5568 25.4766 19.5497 25.3229 19.5497C25.1657 19.5497 25.0043 19.5568 24.8401 19.5625L24.8258 19.5632V19.4388H24.8749C24.9497 19.4388 25.0607 19.4216 25.0608 19.3599C25.0617 19.3234 25.0325 19.2361 24.9963 19.1339L24.8741 18.7717H24.1629L24.0634 19.0953C24.031 19.2049 23.9929 19.2887 23.9933 19.3405C23.9933 19.4189 24.1141 19.4388 24.2206 19.4388H24.2699V19.5632L24.2554 19.5625C24.1267 19.5568 23.9948 19.5497 23.8665 19.5497C23.751 19.5497 23.6354 19.5568 23.5192 19.5625L23.5051 19.5632V19.4388H23.5374C23.6576 19.4382 23.7581 19.3698 23.8052 19.2399L24.3205 17.7706C24.3618 17.6521 24.42 17.4928 24.4483 17.3654C24.5495 17.3305 24.6789 17.2662 24.7416 17.2276C24.7499 17.2244 24.7589 17.2206 24.7721 17.2206C24.7804 17.2198 24.7973 17.2219 24.8072 17.2393C24.8169 17.2646 24.8264 17.2936 24.8369 17.3194L25.4294 18.9937C25.4681 19.1058 25.5066 19.2241 25.5484 19.3196C25.5863 19.4043 25.6446 19.4379 25.7477 19.4388H25.7809V19.5632L25.7664 19.5625ZM24.8531 19.5342C25.0125 19.5284 25.1692 19.5222 25.3229 19.5222C25.4727 19.5222 25.6128 19.5284 25.7534 19.534L25.753 19.467H25.7476C25.6385 19.4672 25.5625 19.4246 25.5223 19.3302C25.4798 19.2335 25.4416 19.1146 25.4029 19.0029L24.8101 17.3281C24.8006 17.3025 24.7903 17.2739 24.7828 17.2518C24.7801 17.248 24.7803 17.248 24.7784 17.248H24.7721C24.7651 17.248 24.7616 17.2502 24.7539 17.2524C24.6908 17.2915 24.5619 17.3557 24.4668 17.3801C24.4468 17.5014 24.3883 17.6611 24.3468 17.78L23.8308 19.249C23.7818 19.3881 23.6693 19.4672 23.5374 19.467H23.5327V19.534C23.6437 19.5284 23.7544 19.5222 23.8665 19.5222C23.9912 19.5222 24.1186 19.5284 24.2424 19.534V19.467H24.2206C24.1158 19.4655 23.969 19.4545 23.9649 19.3405C23.9657 19.2772 24.0054 19.1955 24.0369 19.0871L24.0499 19.0911L24.0369 19.0867L24.1429 18.7446H24.8939L25.0233 19.1248C25.0588 19.2278 25.0881 19.3131 25.0881 19.3598C25.0835 19.4579 24.948 19.4651 24.8749 19.467H24.8531V19.5342ZM24.1949 18.5926L24.5043 17.6587H24.521V17.6729L24.5173 17.6738L24.521 17.6729V17.6587H24.5307L24.8353 18.5926H24.1949ZM24.2338 18.5648H24.7974L24.5172 17.7075L24.2338 18.5648ZM24.5076 17.6771L24.5139 17.6748L24.5076 17.6771Z" fill="#1A1919"/>
<path fill-rule="evenodd" clip-rule="evenodd" d="M26.5795 19.2348C26.5795 19.3635 26.669 19.4014 26.7724 19.4148C26.9043 19.4243 27.0494 19.4243 27.198 19.408C27.3332 19.3919 27.4491 19.3155 27.5069 19.2348C27.5582 19.1645 27.5872 19.0749 27.6069 19.0046H27.7001C27.6646 19.1871 27.6196 19.3665 27.581 19.5488C27.298 19.5488 27.0136 19.5364 26.7306 19.5364C26.4468 19.5364 26.1635 19.5488 25.8801 19.5488V19.4526H25.9248C26.041 19.4526 26.1671 19.4368 26.1671 19.2383V17.5931C26.1671 17.4263 26.041 17.4103 25.9248 17.4103H25.8801V17.3142C26.0506 17.3142 26.2184 17.3269 26.3889 17.3269C26.5535 17.3269 26.7143 17.3142 26.879 17.3142V17.4103H26.798C26.6756 17.4103 26.5795 17.4137 26.5795 17.5833V19.2348Z" fill="#1A1919"/>
<path fill-rule="evenodd" clip-rule="evenodd" d="M27.5811 19.5625C27.2969 19.5625 27.0131 19.5496 26.7306 19.5496C26.4472 19.5496 26.1636 19.5625 25.8795 19.5625H25.866V19.4388H25.9247C26.0412 19.436 26.1518 19.4279 26.1532 19.2383V17.5925C26.1518 17.4367 26.0417 17.4263 25.9247 17.4242H25.866V17.3003H25.8795C26.0511 17.3003 26.2188 17.3128 26.3886 17.3128C26.5527 17.3128 26.7132 17.3003 26.879 17.3003H26.8919V17.4242H26.798C26.673 17.4274 26.5955 17.4218 26.5927 17.5833V19.2348C26.5935 19.3545 26.6724 19.3865 26.7731 19.4008C26.8299 19.4047 26.8899 19.4068 26.9518 19.4068C27.0306 19.4068 27.1124 19.4031 27.1957 19.3944C27.3269 19.3789 27.4398 19.3035 27.4956 19.2272C27.5453 19.1587 27.5734 19.071 27.5929 19.0013L27.5956 18.9908H27.717L27.7142 19.0076C27.6778 19.1906 27.6334 19.3692 27.5944 19.5517L27.5918 19.5625H27.5811ZM27.5692 19.5349C27.6066 19.361 27.6486 19.191 27.6835 19.0183H27.617C27.5973 19.088 27.5685 19.1739 27.518 19.2436C27.4578 19.3264 27.3385 19.4047 27.1988 19.4219C27.1145 19.4304 27.0307 19.4348 26.9518 19.4348C26.8894 19.4348 26.8291 19.432 26.7705 19.4279C26.6657 19.4165 26.5644 19.3718 26.5645 19.2348V17.5833C26.5645 17.4053 26.6778 17.3961 26.798 17.3961H26.8644V17.328C26.7057 17.329 26.549 17.341 26.3886 17.341C26.2222 17.341 26.0589 17.329 25.894 17.328V17.3961H25.9248C26.0396 17.3961 26.1802 17.4161 26.1802 17.5925V19.2383C26.1802 19.4456 26.0402 19.467 25.9248 19.467H25.894V19.5349C26.1723 19.5343 26.4508 19.5223 26.7306 19.5223C27.0107 19.5223 27.2903 19.5343 27.5692 19.5349Z" fill="#1A1919"/>
<path fill-rule="evenodd" clip-rule="evenodd" d="M27.6607 17.2234C27.8551 17.2234 28.0001 17.3718 28.0001 17.5613C28.0001 17.7507 27.8551 17.8974 27.6607 17.8974C27.4668 17.8974 27.3215 17.7507 27.3215 17.5613C27.3215 17.3718 27.4668 17.2234 27.6607 17.2234ZM27.6607 17.8347C27.8128 17.8347 27.9291 17.7062 27.9291 17.5612C27.9291 17.4161 27.8142 17.2865 27.6607 17.2865C27.508 17.2865 27.3919 17.4161 27.3919 17.5612C27.3919 17.7062 27.508 17.8347 27.6607 17.8347ZM27.492 17.739V17.7226C27.5335 17.7167 27.5413 17.7178 27.5413 17.6926V17.4427C27.5413 17.4076 27.5377 17.3955 27.4933 17.3974V17.3802H27.667C27.7266 17.3802 27.7816 17.4085 27.7816 17.4699C27.7816 17.5199 27.7485 17.5571 27.7014 17.5715L27.7572 17.6488C27.7832 17.6837 27.8129 17.7167 27.8319 17.7283V17.739H27.7659C27.7342 17.739 27.7061 17.6728 27.644 17.584H27.6064V17.6957C27.6064 17.7178 27.6142 17.7167 27.6559 17.7226V17.739H27.492ZM27.6064 17.5612H27.6464C27.6902 17.5612 27.7104 17.5284 27.7104 17.4752C27.7104 17.4216 27.6792 17.4026 27.6442 17.4026H27.6064V17.5612Z" fill="#1A1919"/>
<path fill-rule="evenodd" clip-rule="evenodd" d="M7.53833 6.01263C7.53833 3.01828 9.98122 0.5909 12.9946 0.5909C16.0081 0.5909 18.451 3.01828 18.451 6.01263C18.451 9.00699 16.0081 11.4345 12.9946 11.4345C9.98122 11.4345 7.53833 9.00699 7.53833 6.01263Z" fill="#FFFFFE"/>
<path fill-rule="evenodd" clip-rule="evenodd" d="M16.2943 5.90582C16.2921 4.5174 15.4187 3.33328 14.188 2.86433V8.94707C15.4187 8.47752 16.2921 7.29449 16.2943 5.90582ZM11.8402 8.9459V2.86498C10.6105 3.33538 9.73848 4.5178 9.73519 5.90586C9.73848 7.29356 10.6105 8.47586 11.8402 8.9459ZM13.0147 0.764479C10.1572 0.765569 7.84211 3.06644 7.84162 5.90581C7.84211 8.74482 10.1572 11.0453 13.0147 11.0458C15.8722 11.0453 18.1878 8.74482 18.1885 5.90581C18.1878 3.06644 15.8722 0.765569 13.0147 0.764479ZM13.002 11.531C9.87514 11.5458 7.30151 9.02859 7.30151 5.96444C7.30151 2.61565 9.87514 0.299393 13.002 0.299999H14.4674C17.5573 0.299393 20.3774 2.61456 20.3774 5.96444C20.3774 9.0275 17.5573 11.531 14.4674 11.531H13.002Z" fill="#0069AA"/>
</svg>
