<svg width="69" height="24" viewBox="0 0 69 24" fill="none" xmlns="http://www.w3.org/2000/svg">
<g id="logo">
<g id="label">
<path id="Vector" d="M35.9218 14.3308V19.2223H33.1034V3.51764H38.3331C43.2903 3.51764 45.3978 5.29009 45.3978 8.84124C45.3978 12.4989 42.9301 14.3371 38.3331 14.3371L35.9218 14.3308ZM35.9218 6.09802V11.7504H38.546C41.1483 11.7504 42.4949 10.8987 42.4949 8.76609C42.4949 6.83706 41.3268 6.09802 38.5898 6.09802H35.9218Z" fill="white"/>
<path id="Vector_2" d="M46.8915 8.79115C47.6306 8.22747 48.9771 7.77966 50.9093 7.77966C54.1849 7.77966 55.8007 8.90075 55.8007 11.8193V19.2223H53.33V17.2024C52.7913 18.5052 51.4228 19.3945 49.6285 19.3945C47.3644 19.3945 46.0178 18.1137 46.0178 15.9154C46.0178 13.3569 47.878 12.6398 50.64 12.6398H53.1828V12.1544C53.1828 10.5636 52.4218 10.0688 50.9187 10.0688C48.8519 10.0688 47.665 10.8768 46.9009 12.0667L46.8915 8.79115ZM53.1828 15.2734V14.3528H50.9625C49.4124 14.3528 48.6734 14.6471 48.6734 15.6555C48.6734 16.5072 49.2997 17.0459 50.4677 17.0459C52.2433 17.0459 53.0606 16.0375 53.1828 15.2734Z" fill="white"/>
<path id="Vector_3" d="M57.1003 8.00513H60.0377L63.1129 15.6993L65.6181 8.00513H68.402L63.9208 20.4123C62.9344 23.1054 61.9229 23.7098 60.4417 23.7098C59.7465 23.7098 58.9855 23.5093 58.6473 23.2181V20.7724C59.009 21.1231 59.4903 21.3235 59.9939 21.3329C60.8018 21.3329 61.4062 20.7943 61.8352 19.2692L57.1003 8.00513Z" fill="white"/>
</g>
<g id="icon">
<path id="Vector_4" d="M7.43427 8.80049V12.2452L12.0032 15.1105L22.9353 7.0531C22.5514 6.20404 22.0692 5.40312 21.498 4.66687L12.0032 11.6658L7.43427 8.80049Z" fill="white"/>
<path id="Vector_5" d="M21.2412 11.7567C21.2412 11.8381 21.2412 11.9195 21.2412 12.0041C21.2431 14.066 20.5548 16.0692 19.286 17.6944C18.0171 19.3196 16.2406 20.4733 14.2398 20.9715C12.2389 21.4694 10.1289 21.2834 8.24611 20.4429C6.36331 19.6025 4.81608 18.1558 3.8511 16.3336C2.88612 14.5115 2.55893 12.4187 2.92169 10.389C3.28445 8.35919 4.31629 6.50933 5.85268 5.13421C7.38907 3.7591 9.34161 2.93792 11.399 2.80157C13.4564 2.66522 15.5002 3.22157 17.2047 4.38193L19.5377 2.66272C17.42 0.953244 14.7842 0.014349 12.0627 0.000163146C9.34115 -0.0140227 6.69566 0.897285 4.5603 2.58459C2.4249 4.27189 0.926528 6.63494 0.310962 9.28594C-0.304572 11.937 -0.000686812 14.7185 1.17276 17.174C2.34618 19.6296 4.31948 21.6135 6.76881 22.7997C9.21814 23.9862 11.998 24.3047 14.6522 23.7032C17.3065 23.1019 19.6773 21.616 21.3759 19.4895C23.0744 17.3631 23.9998 14.7225 24.0001 12.0009C24.0004 11.2796 23.9365 10.5596 23.8091 9.84958L21.2412 11.7567Z" fill="white"/>
</g>
</g>
</svg>
