<svg width="28" height="20" viewBox="0 0 28 20" fill="none" xmlns="http://www.w3.org/2000/svg">
<path d="M8.43607 1.66915C3.87762 1.66915 0.169189 5.39916 0.169189 9.9831C0.169189 14.567 3.87762 18.2982 8.43607 18.2982H19.5672C24.1245 18.2982 27.8317 14.5682 27.8317 9.9831C27.8317 5.39799 24.1245 1.67208 19.5701 1.67208L8.43607 1.66915Z" fill="white"/>
<path d="M19.5673 18.4668H8.43619C3.78465 18.4668 0 14.6624 0 9.98309C0 5.30375 3.78174 1.5 8.43619 1.5H19.5673C24.2171 1.5 28 5.30434 28 9.98309C28 14.6618 24.2183 18.4697 19.5673 18.4697V18.4668ZM8.43619 1.66915C3.87774 1.66915 0.169306 5.39916 0.169306 9.98309C0.169306 14.567 3.87774 18.2982 8.43619 18.2982H19.5673C24.1246 18.2982 27.8319 14.5682 27.8319 9.98309C27.8319 5.39799 24.1246 1.67207 19.5702 1.67207L8.43619 1.66915Z" fill="#2B2523"/>
<path d="M21.5129 9.47566L25.215 13.9045C26.0291 12.7205 26.4541 11.3097 26.4305 9.87026C26.407 8.4308 25.9359 7.03491 25.0835 5.8785L21.5129 9.47566Z" fill="#DC0D19"/>
<path d="M11.0235 5.5051C13.7882 5.5051 15.8711 6.21271 16.0852 8.5556L18.9942 5.50452H24.7849C24.1415 4.74376 23.3415 4.13274 22.4402 3.71376C21.5389 3.29477 20.5578 3.07782 19.565 3.07793H8.43616C7.44283 3.07755 6.4613 3.29443 5.55957 3.71353C4.65783 4.13263 3.85745 4.74394 3.21387 5.5051H11.0235Z" fill="#DC0D19"/>
<path d="M6.46905 8.45843L5.47998 11.1888H9.46302C10.64 11.1888 10.9967 10.6983 11.2602 9.75425C11.5226 8.82072 10.8675 8.45843 10.0652 8.45843H6.46905Z" fill="#DC0D19"/>
<path d="M19.0187 14.2767L15.9415 10.3653C15.372 13.0324 13.5096 14.2767 10.0188 14.2767H3.06152C3.70368 15.0916 4.52068 15.7499 5.45142 16.2024C6.38216 16.6548 7.40254 16.8897 8.43625 16.8894H19.5674C20.6007 16.8896 21.6207 16.6546 22.5511 16.2022C23.4814 15.7498 24.298 15.0915 24.9398 14.2767H19.0187Z" fill="#DC0D19"/>
</svg>
