<svg width="146" height="34" viewBox="0 0 146 34" fill="none" xmlns="http://www.w3.org/2000/svg">
<path d="M7.17541 23.2822C3.73889 23.2822 1.68029 20.8418 1.68029 17.0151V16.9985C1.68029 13.1553 3.78869 10.7397 7.17541 10.7397C10.5787 10.7397 12.6705 13.1636 12.6705 16.9985V17.0151C12.6705 20.8335 10.5953 23.2822 7.17541 23.2822ZM7.17541 21.9043C9.63244 21.9043 11.1432 19.9785 11.1432 17.0151V16.9985C11.1432 14.0103 9.62414 12.1177 7.17541 12.1177C4.73498 12.1177 3.20764 14.0103 3.20764 16.9985V17.0151C3.20764 19.9785 4.68518 21.9043 7.17541 21.9043ZM14.8055 23V14.0518H22.0438V23H20.5994V15.2471H16.2498V23H14.8055ZM26.5527 19.4971C26.3618 21.9624 25.5981 23.083 24.104 23.083C23.7969 23.083 23.5644 23.0332 23.4482 22.9917V21.6885C23.5229 21.7134 23.7471 21.7466 23.9629 21.7466C24.7846 21.7466 25.1167 20.709 25.208 19.3809L25.5898 14.0518H31.4419V23H29.9975V15.2471H26.8847L26.5527 19.4971ZM36.3161 23.1577C34.6144 23.1577 33.3278 22.1284 33.3278 20.5015V20.4849C33.3278 18.8911 34.5065 17.9697 36.59 17.8452L39.1549 17.6875V16.874C39.1549 15.77 38.4826 15.1724 37.1462 15.1724C36.0754 15.1724 35.3698 15.5708 35.1374 16.2681L35.1291 16.293H33.6847L33.693 16.2432C33.9254 14.8403 35.2868 13.894 37.196 13.894C39.3791 13.894 40.5993 15.0146 40.5993 16.874V23H39.1549V21.6802H39.0221C38.4577 22.6348 37.5197 23.1577 36.3161 23.1577ZM34.8053 20.4683C34.8053 21.373 35.5773 21.9043 36.6149 21.9043C38.0841 21.9043 39.1549 20.9414 39.1549 19.6631V18.8496L36.7643 18.999C35.403 19.082 34.8053 19.5635 34.8053 20.4517V20.4683ZM49.4496 14.0518V15.2471H46.5526V23H45.1082V15.2471H42.2113V14.0518H49.4496ZM51.103 23V14.0518H52.5474V20.7256H52.6802L57.1045 14.0518H58.5488V23H57.1045V16.3262H56.9717L52.5474 23H51.103ZM67.4489 14.0518V15.2471H64.552V23H63.1076V15.2471H60.2106V14.0518H67.4489ZM69.1024 23V14.0518H70.5468V16.9238H72.2982C74.3485 16.9238 75.66 18.1025 75.66 19.9536V19.9702C75.66 21.8213 74.3485 23 72.2982 23H69.1024ZM72.2982 18.1191H70.5468V21.8047H72.2982C73.4769 21.8047 74.2157 21.0742 74.2157 19.9702V19.9536C74.2157 18.8413 73.4686 18.1191 72.2982 18.1191Z" fill="white"/>
<path d="M106.406 24.3098L102.248 26.8727L98.3829 34L114.136 24.3098H106.406Z" fill="#027C37"/>
<path d="M145.5 12.658V21.3821H142.623V15.2556H139.855V21.3821H136.978V12.658H145.5Z" fill="white"/>
<path d="M135.566 17.2973C135.604 19.8312 133.688 21.6304 130.963 21.6304C128.385 21.6304 126.213 19.97 126.213 15.9204C126.213 12.484 128.276 9.65508 131.321 9.59723H135.561L134.215 12.1832H131.625C130.985 12.1597 130.358 12.3904 129.868 12.8307C129.378 13.2711 129.058 13.8896 128.971 14.5667C129.779 13.8266 130.815 13.4292 131.881 13.4502C132.841 13.4659 133.76 13.8746 134.446 14.5917C135.132 15.3088 135.533 16.2796 135.566 17.3031V17.2973ZM132.695 17.4998C132.698 17.1386 132.601 16.7845 132.416 16.4819C132.231 16.1793 131.966 15.9416 131.655 15.7988C131.343 15.6559 130.999 15.6142 130.666 15.6789C130.333 15.7436 130.025 15.9117 129.78 16.1623C129.536 16.4129 129.367 16.7347 129.294 17.0874C129.221 17.4401 129.247 17.8079 129.369 18.1448C129.492 18.4817 129.704 18.7726 129.981 18.981C130.258 19.1894 130.586 19.306 130.925 19.3163C131.154 19.3248 131.383 19.2842 131.597 19.1968C131.811 19.1094 132.006 18.9771 132.171 18.8076C132.336 18.6382 132.468 18.435 132.558 18.2104C132.648 17.9857 132.694 17.7441 132.695 17.4998Z" fill="white"/>
<path d="M123.998 18.3857C123.321 18.8287 122.54 19.0593 121.745 19.051C121.248 19.023 120.78 18.7929 120.438 18.4081C120.095 18.0233 119.905 17.5132 119.905 16.9828C119.905 16.4525 120.095 15.9423 120.438 15.5575C120.78 15.1728 121.248 14.9426 121.745 14.9146C122.538 14.9049 123.318 15.1357 123.993 15.5799L125.078 13.5204C124.173 12.775 123.058 12.3774 121.914 12.3923C119.107 12.3923 117.175 14.822 117.175 16.9857C117.175 19.5138 119.346 21.6138 121.897 21.6138C123.052 21.6276 124.177 21.2192 125.084 20.4568L123.998 18.3857Z" fill="white"/>
<path d="M94.523 17.002L90.3595 19.5591L86.5 26.6922L102.247 17.002H94.523Z" fill="#954B97"/>
<path d="M106.406 9.68961L102.248 12.2524L98.3829 19.3798L114.136 9.68961H106.406Z" fill="#DA1945"/>
<path d="M102.247 7.13311L98.3875 0V33.9995L102.247 26.8721V7.13311Z" fill="#FBBB25"/>
<path d="M98.3829 0L102.247 7.13311L106.411 9.69017L114.136 9.68961L98.3829 0Z" fill="#F07F1B"/>
<path d="M98.3829 14.6189V34L102.247 26.8721L102.248 21.752L98.3829 14.6189Z" fill="#65B330"/>
<path d="M86.5 7.31266V26.6922L90.3595 19.5591V14.44L86.5 7.31266Z" fill="#5C57A2"/>
<path d="M98.3829 14.6189L98.3879 14.6251L86.5 7.31266L90.3595 14.44L106.411 24.3095L114.136 24.3098L98.3829 14.6189Z" fill="#0494D3"/>
</svg>
