<svg width="28" height="20" viewBox="0 0 28 20" fill="none" xmlns="http://www.w3.org/2000/svg">
<path d="M2.93024 13.2083C2.36614 13.0043 1.95815 12.5962 1.67402 12.0198C1.31859 11.2981 1.05476 10.2889 1.061 9.47174C1.06725 8.70282 1.11304 8.28794 1.3467 7.89141C0.965238 8.15313 0.695053 8.54954 0.589528 9.00231C0.31216 10.2585 0.913731 12.3922 2.08825 13.1223L2.09033 13.1235C2.11243 13.1367 2.14775 13.1578 2.12052 13.2025C1.37584 13.0552 0.659781 12.0602 0.309558 10.6781C0.281465 10.6856 0.255416 10.6994 0.233344 10.7185C0.211273 10.7376 0.193744 10.7614 0.182062 10.7882C-0.0781331 11.2157 -0.0375425 11.66 0.16593 12.078C0.60618 12.9812 1.30715 13.4559 2.21106 13.5555C2.45252 13.5823 2.69815 13.586 2.9318 13.48L2.93769 13.4774C3.00787 13.4459 3.09178 13.4084 3.09937 13.3227C3.10747 13.2305 3.04381 13.224 2.98573 13.218C2.96546 13.2159 2.94586 13.2139 2.93024 13.2083Z" fill="url(#paint0_linear_6829_29539)"/>
<path d="M5.34173 8.7967C5.39689 7.24417 5.40053 6.97091 5.1112 6.98192C5.5426 6.23083 6.81704 6.55288 6.76135 7.82008V12.3618C6.76135 12.4819 6.71398 12.5972 6.62967 12.6822C6.54535 12.7672 6.43098 12.8149 6.31174 12.8149H5.79135C5.6721 12.8149 5.55774 12.7672 5.47342 12.6822C5.3891 12.5972 5.34173 12.4819 5.34173 12.3618V9.99257C4.79428 9.99677 3.22739 9.97212 2.64559 9.9611C2.68982 11.6851 3.04889 12.5202 3.23779 12.8433C3.24598 12.8574 3.24967 12.8737 3.24835 12.89C3.24704 12.9062 3.2408 12.9217 3.23046 12.9343C3.22013 12.9469 3.2062 12.956 3.19057 12.9604C3.17494 12.9647 3.15836 12.9641 3.14308 12.9586C2.11739 12.6177 1.68235 11.1197 1.55641 10.2837C1.42163 9.39097 1.49813 8.2764 1.84731 7.53737C2.1278 6.94573 2.63674 6.78838 2.97552 6.73593C2.96507 6.77272 2.95343 6.81183 2.94094 6.85379C2.83022 7.22585 2.65287 7.82176 2.65287 9.00388C2.78779 9.0043 2.94507 9.00481 3.11629 9.00537C3.81685 9.00765 4.75084 9.0107 5.34173 9.0107V8.7967Z" fill="url(#paint1_linear_6829_29539)"/>
<path d="M12.4652 6.58905H12.8019C12.944 6.58961 13.0802 6.64676 13.1807 6.74805C13.2812 6.84934 13.3379 6.98657 13.3384 7.12982V10.3602C13.3384 10.4442 13.3363 10.5276 13.3317 10.6115C13.3167 10.9426 13.2514 11.2695 13.1381 11.5808C13.0393 11.8481 12.89 12.0936 12.6983 12.3035C12.5111 12.5027 12.2855 12.6614 12.0354 12.7698C12.0099 12.7808 11.9839 12.7918 11.9578 12.8018C11.5264 12.9723 11.2184 13.0058 10.7609 13.0085C10.4686 13.0183 10.176 13.0017 9.88668 12.9586C9.60381 12.912 9.33173 12.8139 9.08372 12.6691C8.84779 12.5358 8.64076 12.3562 8.47486 12.1409C8.30017 11.9089 8.1696 11.6462 8.08977 11.3662C7.99728 11.0392 7.95224 10.7003 7.95603 10.3602V7.12982C7.95603 7.05853 7.96996 6.98794 7.99703 6.92207C8.0241 6.85621 8.06377 6.79637 8.11378 6.74596C8.1638 6.69555 8.22317 6.65556 8.28852 6.62828C8.35387 6.601 8.4239 6.58696 8.49463 6.58696H8.83133C8.90206 6.58696 8.9721 6.601 9.03744 6.62828C9.10279 6.65556 9.16216 6.69555 9.21218 6.74596C9.26219 6.79637 9.30187 6.85621 9.32893 6.92207C9.356 6.98794 9.36993 7.05853 9.36993 7.12982V10.3602C9.36993 11.3017 9.80966 11.8163 10.6485 11.8598C11.4874 11.8163 11.9266 11.3017 11.9266 10.3602V7.12982C11.9272 6.98621 11.9841 6.84866 12.0851 6.74731C12.186 6.64596 12.3227 6.58905 12.4652 6.58905Z" fill="url(#paint2_linear_6829_29539)"/>
<path d="M20.7332 7.12512C20.7282 6.98337 20.6688 6.8491 20.5676 6.75059C20.4663 6.65207 20.3311 6.59699 20.1904 6.59694H19.5711C19.4703 6.59693 19.3714 6.62517 19.2856 6.67853C19.1998 6.73188 19.1304 6.80823 19.0851 6.89906L17.6858 9.75603L16.2458 6.88752C16.1996 6.79976 16.1305 6.72635 16.0459 6.67516C15.9614 6.62397 15.8647 6.59693 15.7661 6.59694H15.1416C15 6.59702 14.8641 6.65274 14.7626 6.75225C14.6612 6.85176 14.6022 6.98722 14.5983 7.12984L14.4531 12.2994C14.451 12.3726 14.4635 12.4455 14.4899 12.5137C14.5163 12.582 14.5559 12.6442 14.6066 12.6968C14.6573 12.7493 14.7179 12.791 14.7848 12.8195C14.8518 12.848 14.9237 12.8627 14.9964 12.8627H15.0156C15.1576 12.8627 15.2939 12.8067 15.3955 12.7068C15.497 12.6068 15.5557 12.4707 15.5589 12.3277L15.6255 9.44605C15.6344 9.13554 15.6432 8.57642 15.6344 8.41697H15.6521C15.7359 8.64551 15.9075 8.98938 16.0491 9.27321C16.0833 9.34176 16.1158 9.40691 16.1449 9.46598L17.0296 11.0919C17.0786 11.1821 17.1507 11.2573 17.2383 11.31C17.3259 11.3626 17.4258 11.3907 17.5278 11.3913C17.6298 11.392 17.7301 11.3651 17.8183 11.3136C17.9066 11.2621 17.9796 11.1877 18.0298 11.0982L18.9456 9.31492C19.095 9.02225 19.3328 8.5161 19.4384 8.26592H19.4561C19.4561 8.47266 19.465 8.79458 19.4733 9.09724C19.4767 9.22268 19.4801 9.34576 19.4827 9.45497L19.5644 12.3303C19.5684 12.4728 19.6275 12.6082 19.7289 12.7076C19.8303 12.8069 19.9662 12.8626 20.1077 12.8627H20.3725C20.4455 12.8626 20.5177 12.8478 20.5848 12.8191C20.652 12.7903 20.7127 12.7482 20.7633 12.6953C20.814 12.6424 20.8536 12.5797 20.8797 12.5111C20.9058 12.4424 20.9179 12.3692 20.9153 12.2957L20.7332 7.12512Z" fill="url(#paint3_linear_6829_29539)"/>
<path fill-rule="evenodd" clip-rule="evenodd" d="M24.7511 13.0305C22.7346 13.0305 21.6428 11.478 21.6428 9.54308C21.6428 7.64437 23.0078 6.42857 24.8391 6.42857C26.7052 6.42857 27.9999 7.50223 27.9999 9.45443C28.0004 11.4334 26.7676 13.0305 24.7511 13.0305ZM24.8214 7.30711C23.5272 7.30711 23.1041 8.49616 23.1041 9.59657C23.1041 10.6881 23.5001 12.152 24.8385 12.152C26.1327 12.152 26.5376 10.6257 26.5376 9.58766C26.5387 8.52291 26.0802 7.30711 24.8214 7.30711Z" fill="url(#paint4_linear_6829_29539)"/>
<defs>
<linearGradient id="paint0_linear_6829_29539" x1="35.14" y1="13.0086" x2="27.6944" y2="-4.764" gradientUnits="userSpaceOnUse">
<stop offset="0.329" stop-color="#9C8837"/>
<stop offset="0.5606" stop-color="#F7E59E"/>
<stop offset="0.6012" stop-color="#EFDD95"/>
<stop offset="0.6639" stop-color="#DDCA81"/>
<stop offset="0.7405" stop-color="#C4B062"/>
<stop offset="0.7875" stop-color="#B39F4D"/>
</linearGradient>
<linearGradient id="paint1_linear_6829_29539" x1="35.14" y1="13.0086" x2="27.6944" y2="-4.764" gradientUnits="userSpaceOnUse">
<stop offset="0.329" stop-color="#9C8837"/>
<stop offset="0.5606" stop-color="#F7E59E"/>
<stop offset="0.6012" stop-color="#EFDD95"/>
<stop offset="0.6639" stop-color="#DDCA81"/>
<stop offset="0.7405" stop-color="#C4B062"/>
<stop offset="0.7875" stop-color="#B39F4D"/>
</linearGradient>
<linearGradient id="paint2_linear_6829_29539" x1="35.1398" y1="13.0086" x2="27.6942" y2="-4.76401" gradientUnits="userSpaceOnUse">
<stop offset="0.329" stop-color="#9C8837"/>
<stop offset="0.5606" stop-color="#F7E59E"/>
<stop offset="0.6012" stop-color="#EFDD95"/>
<stop offset="0.6639" stop-color="#DDCA81"/>
<stop offset="0.7405" stop-color="#C4B062"/>
<stop offset="0.7875" stop-color="#B39F4D"/>
</linearGradient>
<linearGradient id="paint3_linear_6829_29539" x1="35.1398" y1="13.0086" x2="27.6942" y2="-4.764" gradientUnits="userSpaceOnUse">
<stop offset="0.329" stop-color="#9C8837"/>
<stop offset="0.5606" stop-color="#F7E59E"/>
<stop offset="0.6012" stop-color="#EFDD95"/>
<stop offset="0.6639" stop-color="#DDCA81"/>
<stop offset="0.7405" stop-color="#C4B062"/>
<stop offset="0.7875" stop-color="#B39F4D"/>
</linearGradient>
<linearGradient id="paint4_linear_6829_29539" x1="35.1399" y1="13.0086" x2="27.6943" y2="-4.76401" gradientUnits="userSpaceOnUse">
<stop offset="0.329" stop-color="#9C8837"/>
<stop offset="0.5606" stop-color="#F7E59E"/>
<stop offset="0.6012" stop-color="#EFDD95"/>
<stop offset="0.6639" stop-color="#DDCA81"/>
<stop offset="0.7405" stop-color="#C4B062"/>
<stop offset="0.7875" stop-color="#B39F4D"/>
</linearGradient>
</defs>
</svg>
